solid ascii
 facet normal -1 0 -0
  outer loop
   vertex -0.5 -0.5 6.12323e-017
   vertex -0.5 -0.25 0.433013
   vertex -0.5 -0.25 -0.433013
  endloop
 endfacet
 facet normal -1 0 0
  outer loop
   vertex -0.5 -0.25 -0.433013
   vertex -0.5 -0.25 0.433013
   vertex -0.5 0.25 -0.433013
  endloop
 endfacet
 facet normal -1 -0 -0
  outer loop
   vertex -0.5 -0.25 0.433013
   vertex -0.5 0.25 0.433013
   vertex -0.5 0.25 -0.433013
  endloop
 endfacet
 facet normal -1 0 0
  outer loop
   vertex -0.5 0.5 0
   vertex -0.5 0.25 -0.433013
   vertex -0.5 0.25 0.433013
  endloop
 endfacet
 facet normal 0.39736 0.794719 0.458831
  outer loop
   vertex 0.5 0 0
   vertex -0.5 0.5 0
   vertex -0.5 0.25 0.433013
  endloop
 endfacet
 facet normal 0.39736 0 0.917663
  outer loop
   vertex 0.5 0 0
   vertex -0.5 0.25 0.433013
   vertex -0.5 -0.25 0.433013
  endloop
 endfacet
 facet normal 0.39736 -0.794719 0.458831
  outer loop
   vertex 0.5 0 0
   vertex -0.5 -0.25 0.433013
   vertex -0.5 -0.5 6.12323e-017
  endloop
 endfacet
 facet normal 0.39736 -0.794719 -0.458831
  outer loop
   vertex 0.5 0 0
   vertex -0.5 -0.5 6.12323e-017
   vertex -0.5 -0.25 -0.433013
  endloop
 endfacet
 facet normal 0.39736 0 -0.917663
  outer loop
   vertex 0.5 0 0
   vertex -0.5 -0.25 -0.433013
   vertex -0.5 0.25 -0.433013
  endloop
 endfacet
 facet normal 0.39736 0.794719 -0.458831
  outer loop
   vertex 0.5 0 0
   vertex -0.5 0.25 -0.433013
   vertex -0.5 0.5 0
  endloop
 endfacet
endsolid
