<?xml version="1.0" encoding="utf-8" standalone="no"?>
<!DOCTYPE svg PUBLIC "-//W3C//DTD SVG 1.1//EN"
  "http://www.w3.org/Graphics/SVG/1.1/DTD/svg11.dtd">
<svg xmlns:xlink="http://www.w3.org/1999/xlink" width="720pt" height="576pt" viewBox="0 0 720 576" xmlns="http://www.w3.org/2000/svg" version="1.1">
 <metadata>
  <rdf:RDF xmlns:dc="http://purl.org/dc/elements/1.1/" xmlns:cc="http://creativecommons.org/ns#" xmlns:rdf="http://www.w3.org/1999/02/22-rdf-syntax-ns#">
   <cc:Work>
    <dc:type rdf:resource="http://purl.org/dc/dcmitype/StillImage"/>
    <dc:date>2024-04-30T00:10:37.103037</dc:date>
    <dc:format>image/svg+xml</dc:format>
    <dc:creator>
     <cc:Agent>
      <dc:title>Matplotlib v3.5.2, https://matplotlib.org/</dc:title>
     </cc:Agent>
    </dc:creator>
   </cc:Work>
  </rdf:RDF>
 </metadata>
 <defs>
  <style type="text/css">*{stroke-linejoin: round; stroke-linecap: butt}</style>
 </defs>
 <g id="figure_1">
  <g id="patch_1">
   <path d="M 0 576 
L 720 576 
L 720 0 
L 0 0 
z
" style="fill: #ffffff"/>
  </g>
  <g id="axes_1">
   <g id="patch_2">
    <path d="M 45.34 270.051818 
L 698.625 270.051818 
L 698.625 10.8 
L 45.34 10.8 
z
" style="fill: #ffffff"/>
   </g>
   <g id="matplotlib.axis_1">
    <g id="xtick_1">
     <g id="line2d_1">
      <defs>
       <path id="ma1fcd95960" d="M 0 0 
L 0 3.5 
" style="stroke: #000000; stroke-width: 0.8"/>
      </defs>
      <g>
       <use xlink:href="#ma1fcd95960" x="698.625" y="270.051818" style="stroke: #000000; stroke-width: 0.8"/>
      </g>
     </g>
    </g>
    <g id="xtick_2">
     <g id="line2d_2">
      <g>
       <use xlink:href="#ma1fcd95960" x="589.744167" y="270.051818" style="stroke: #000000; stroke-width: 0.8"/>
      </g>
     </g>
    </g>
    <g id="xtick_3">
     <g id="line2d_3">
      <g>
       <use xlink:href="#ma1fcd95960" x="480.863333" y="270.051818" style="stroke: #000000; stroke-width: 0.8"/>
      </g>
     </g>
    </g>
    <g id="xtick_4">
     <g id="line2d_4">
      <g>
       <use xlink:href="#ma1fcd95960" x="371.9825" y="270.051818" style="stroke: #000000; stroke-width: 0.8"/>
      </g>
     </g>
    </g>
    <g id="xtick_5">
     <g id="line2d_5">
      <g>
       <use xlink:href="#ma1fcd95960" x="263.101667" y="270.051818" style="stroke: #000000; stroke-width: 0.8"/>
      </g>
     </g>
    </g>
    <g id="xtick_6">
     <g id="line2d_6">
      <g>
       <use xlink:href="#ma1fcd95960" x="154.220833" y="270.051818" style="stroke: #000000; stroke-width: 0.8"/>
      </g>
     </g>
    </g>
    <g id="xtick_7">
     <g id="line2d_7">
      <g>
       <use xlink:href="#ma1fcd95960" x="45.34" y="270.051818" style="stroke: #000000; stroke-width: 0.8"/>
      </g>
     </g>
    </g>
   </g>
   <g id="matplotlib.axis_2">
    <g id="ytick_1">
     <g id="line2d_8">
      <defs>
       <path id="m2f2b318ab6" d="M 0 0 
L -3.5 0 
" style="stroke: #000000; stroke-width: 0.8"/>
      </defs>
      <g>
       <use xlink:href="#m2f2b318ab6" x="45.34" y="244.176988" style="stroke: #000000; stroke-width: 0.8"/>
      </g>
     </g>
     <g id="text_1">
      <!-- 0 -->
      <g transform="translate(31.9775 247.976207)scale(0.1 -0.1)">
       <defs>
        <path id="DejaVuSans-30" d="M 2034 4250 
Q 1547 4250 1301 3770 
Q 1056 3291 1056 2328 
Q 1056 1369 1301 889 
Q 1547 409 2034 409 
Q 2525 409 2770 889 
Q 3016 1369 3016 2328 
Q 3016 3291 2770 3770 
Q 2525 4250 2034 4250 
z
M 2034 4750 
Q 2819 4750 3233 4129 
Q 3647 3509 3647 2328 
Q 3647 1150 3233 529 
Q 2819 -91 2034 -91 
Q 1250 -91 836 529 
Q 422 1150 422 2328 
Q 422 3509 836 4129 
Q 1250 4750 2034 4750 
z
" transform="scale(0.015625)"/>
       </defs>
       <use xlink:href="#DejaVuSans-30"/>
      </g>
     </g>
    </g>
    <g id="ytick_2">
     <g id="line2d_9">
      <g>
       <use xlink:href="#m2f2b318ab6" x="45.34" y="214.800669" style="stroke: #000000; stroke-width: 0.8"/>
      </g>
     </g>
     <g id="text_2">
      <!-- 100 -->
      <g transform="translate(19.2525 218.599888)scale(0.1 -0.1)">
       <defs>
        <path id="DejaVuSans-31" d="M 794 531 
L 1825 531 
L 1825 4091 
L 703 3866 
L 703 4441 
L 1819 4666 
L 2450 4666 
L 2450 531 
L 3481 531 
L 3481 0 
L 794 0 
L 794 531 
z
" transform="scale(0.015625)"/>
       </defs>
       <use xlink:href="#DejaVuSans-31"/>
       <use xlink:href="#DejaVuSans-30" x="63.623047"/>
       <use xlink:href="#DejaVuSans-30" x="127.246094"/>
      </g>
     </g>
    </g>
    <g id="ytick_3">
     <g id="line2d_10">
      <g>
       <use xlink:href="#m2f2b318ab6" x="45.34" y="185.424351" style="stroke: #000000; stroke-width: 0.8"/>
      </g>
     </g>
     <g id="text_3">
      <!-- 200 -->
      <g transform="translate(19.2525 189.223569)scale(0.1 -0.1)">
       <defs>
        <path id="DejaVuSans-32" d="M 1228 531 
L 3431 531 
L 3431 0 
L 469 0 
L 469 531 
Q 828 903 1448 1529 
Q 2069 2156 2228 2338 
Q 2531 2678 2651 2914 
Q 2772 3150 2772 3378 
Q 2772 3750 2511 3984 
Q 2250 4219 1831 4219 
Q 1534 4219 1204 4116 
Q 875 4013 500 3803 
L 500 4441 
Q 881 4594 1212 4672 
Q 1544 4750 1819 4750 
Q 2544 4750 2975 4387 
Q 3406 4025 3406 3419 
Q 3406 3131 3298 2873 
Q 3191 2616 2906 2266 
Q 2828 2175 2409 1742 
Q 1991 1309 1228 531 
z
" transform="scale(0.015625)"/>
       </defs>
       <use xlink:href="#DejaVuSans-32"/>
       <use xlink:href="#DejaVuSans-30" x="63.623047"/>
       <use xlink:href="#DejaVuSans-30" x="127.246094"/>
      </g>
     </g>
    </g>
    <g id="ytick_4">
     <g id="line2d_11">
      <g>
       <use xlink:href="#m2f2b318ab6" x="45.34" y="156.048032" style="stroke: #000000; stroke-width: 0.8"/>
      </g>
     </g>
     <g id="text_4">
      <!-- 300 -->
      <g transform="translate(19.2525 159.847251)scale(0.1 -0.1)">
       <defs>
        <path id="DejaVuSans-33" d="M 2597 2516 
Q 3050 2419 3304 2112 
Q 3559 1806 3559 1356 
Q 3559 666 3084 287 
Q 2609 -91 1734 -91 
Q 1441 -91 1130 -33 
Q 819 25 488 141 
L 488 750 
Q 750 597 1062 519 
Q 1375 441 1716 441 
Q 2309 441 2620 675 
Q 2931 909 2931 1356 
Q 2931 1769 2642 2001 
Q 2353 2234 1838 2234 
L 1294 2234 
L 1294 2753 
L 1863 2753 
Q 2328 2753 2575 2939 
Q 2822 3125 2822 3475 
Q 2822 3834 2567 4026 
Q 2313 4219 1838 4219 
Q 1578 4219 1281 4162 
Q 984 4106 628 3988 
L 628 4550 
Q 988 4650 1302 4700 
Q 1616 4750 1894 4750 
Q 2613 4750 3031 4423 
Q 3450 4097 3450 3541 
Q 3450 3153 3228 2886 
Q 3006 2619 2597 2516 
z
" transform="scale(0.015625)"/>
       </defs>
       <use xlink:href="#DejaVuSans-33"/>
       <use xlink:href="#DejaVuSans-30" x="63.623047"/>
       <use xlink:href="#DejaVuSans-30" x="127.246094"/>
      </g>
     </g>
    </g>
    <g id="ytick_5">
     <g id="line2d_12">
      <g>
       <use xlink:href="#m2f2b318ab6" x="45.34" y="126.671713" style="stroke: #000000; stroke-width: 0.8"/>
      </g>
     </g>
     <g id="text_5">
      <!-- 400 -->
      <g transform="translate(19.2525 130.470932)scale(0.1 -0.1)">
       <defs>
        <path id="DejaVuSans-34" d="M 2419 4116 
L 825 1625 
L 2419 1625 
L 2419 4116 
z
M 2253 4666 
L 3047 4666 
L 3047 1625 
L 3713 1625 
L 3713 1100 
L 3047 1100 
L 3047 0 
L 2419 0 
L 2419 1100 
L 313 1100 
L 313 1709 
L 2253 4666 
z
" transform="scale(0.015625)"/>
       </defs>
       <use xlink:href="#DejaVuSans-34"/>
       <use xlink:href="#DejaVuSans-30" x="63.623047"/>
       <use xlink:href="#DejaVuSans-30" x="127.246094"/>
      </g>
     </g>
    </g>
    <g id="ytick_6">
     <g id="line2d_13">
      <g>
       <use xlink:href="#m2f2b318ab6" x="45.34" y="97.295395" style="stroke: #000000; stroke-width: 0.8"/>
      </g>
     </g>
     <g id="text_6">
      <!-- 500 -->
      <g transform="translate(19.2525 101.094613)scale(0.1 -0.1)">
       <defs>
        <path id="DejaVuSans-35" d="M 691 4666 
L 3169 4666 
L 3169 4134 
L 1269 4134 
L 1269 2991 
Q 1406 3038 1543 3061 
Q 1681 3084 1819 3084 
Q 2600 3084 3056 2656 
Q 3513 2228 3513 1497 
Q 3513 744 3044 326 
Q 2575 -91 1722 -91 
Q 1428 -91 1123 -41 
Q 819 9 494 109 
L 494 744 
Q 775 591 1075 516 
Q 1375 441 1709 441 
Q 2250 441 2565 725 
Q 2881 1009 2881 1497 
Q 2881 1984 2565 2268 
Q 2250 2553 1709 2553 
Q 1456 2553 1204 2497 
Q 953 2441 691 2322 
L 691 4666 
z
" transform="scale(0.015625)"/>
       </defs>
       <use xlink:href="#DejaVuSans-35"/>
       <use xlink:href="#DejaVuSans-30" x="63.623047"/>
       <use xlink:href="#DejaVuSans-30" x="127.246094"/>
      </g>
     </g>
    </g>
    <g id="ytick_7">
     <g id="line2d_14">
      <g>
       <use xlink:href="#m2f2b318ab6" x="45.34" y="67.919076" style="stroke: #000000; stroke-width: 0.8"/>
      </g>
     </g>
     <g id="text_7">
      <!-- 600 -->
      <g transform="translate(19.2525 71.718295)scale(0.1 -0.1)">
       <defs>
        <path id="DejaVuSans-36" d="M 2113 2584 
Q 1688 2584 1439 2293 
Q 1191 2003 1191 1497 
Q 1191 994 1439 701 
Q 1688 409 2113 409 
Q 2538 409 2786 701 
Q 3034 994 3034 1497 
Q 3034 2003 2786 2293 
Q 2538 2584 2113 2584 
z
M 3366 4563 
L 3366 3988 
Q 3128 4100 2886 4159 
Q 2644 4219 2406 4219 
Q 1781 4219 1451 3797 
Q 1122 3375 1075 2522 
Q 1259 2794 1537 2939 
Q 1816 3084 2150 3084 
Q 2853 3084 3261 2657 
Q 3669 2231 3669 1497 
Q 3669 778 3244 343 
Q 2819 -91 2113 -91 
Q 1303 -91 875 529 
Q 447 1150 447 2328 
Q 447 3434 972 4092 
Q 1497 4750 2381 4750 
Q 2619 4750 2861 4703 
Q 3103 4656 3366 4563 
z
" transform="scale(0.015625)"/>
       </defs>
       <use xlink:href="#DejaVuSans-36"/>
       <use xlink:href="#DejaVuSans-30" x="63.623047"/>
       <use xlink:href="#DejaVuSans-30" x="127.246094"/>
      </g>
     </g>
    </g>
    <g id="ytick_8">
     <g id="line2d_15">
      <g>
       <use xlink:href="#m2f2b318ab6" x="45.34" y="38.542757" style="stroke: #000000; stroke-width: 0.8"/>
      </g>
     </g>
     <g id="text_8">
      <!-- 700 -->
      <g transform="translate(19.2525 42.341976)scale(0.1 -0.1)">
       <defs>
        <path id="DejaVuSans-37" d="M 525 4666 
L 3525 4666 
L 3525 4397 
L 1831 0 
L 1172 0 
L 2766 4134 
L 525 4134 
L 525 4666 
z
" transform="scale(0.015625)"/>
       </defs>
       <use xlink:href="#DejaVuSans-37"/>
       <use xlink:href="#DejaVuSans-30" x="63.623047"/>
       <use xlink:href="#DejaVuSans-30" x="127.246094"/>
      </g>
     </g>
    </g>
   </g>
   <g id="line2d_16">
    <path d="M 700.363404 244.899199 
L 650.694728 245.924827 
L 643.599203 245.859314 
L 638.277559 245.593732 
L 634.729796 245.189235 
L 632.955915 244.863603 
L 631.182034 244.409369 
L 629.408152 243.768285 
L 627.634271 242.848301 
L 625.86039 241.499928 
L 624.086508 239.475127 
L 622.312627 236.361768 
L 620.538746 231.514663 
L 618.764865 224.167613 
L 616.990983 214.421227 
L 615.217102 205.650769 
L 613.443221 203.869565 
L 611.669339 209.970655 
L 609.895458 218.728929 
L 608.121577 226.19274 
L 606.347696 231.576603 
L 604.573814 235.31496 
L 602.799933 237.937123 
L 601.026052 239.824683 
L 599.25217 241.224076 
L 597.478289 242.291651 
L 595.704408 243.127814 
L 593.930527 243.798476 
L 590.382764 244.806911 
L 586.835001 245.533235 
L 581.513357 246.321962 
L 574.417832 247.070137 
L 565.548426 247.763228 
L 551.357376 248.62168 
L 528.296919 249.763675 
L 491.045412 251.372262 
L 482.176005 251.614054 
L 480.402124 251.579324 
L 478.628243 251.419287 
L 475.08048 250.422548 
L 473.306599 250.821023 
L 471.532718 251.42595 
L 469.758836 251.771478 
L 466.211074 252.098173 
L 460.88943 252.293212 
L 455.567786 252.252353 
L 452.020024 251.940952 
L 450.246142 251.570072 
L 448.472261 250.875242 
L 446.69838 249.486606 
L 444.924498 246.532435 
L 443.150617 241.157875 
L 441.376736 238.759619 
L 439.602855 242.354222 
L 437.828973 244.607441 
L 436.055092 244.39236 
L 434.281211 241.741927 
L 432.507329 235.301498 
L 430.733448 221.12366 
L 428.959567 193.229815 
L 427.185686 168.628475 
L 425.411804 186.447129 
L 423.637923 212.741542 
L 421.864042 228.134699 
L 420.09016 236.453954 
L 418.316279 241.254281 
L 416.542398 244.248156 
L 414.768517 246.245053 
L 412.994635 247.652191 
L 411.220754 248.689192 
L 409.446873 249.482157 
L 407.672991 250.107481 
L 404.125229 251.032444 
L 400.577466 251.688789 
L 395.255822 252.392074 
L 388.160297 253.045647 
L 379.290891 253.627666 
L 366.873722 254.210078 
L 354.456553 254.58711 
L 345.587146 254.642744 
L 340.265503 254.453544 
L 336.71774 254.10456 
L 334.943859 253.803946 
L 333.169977 253.366015 
L 331.396096 252.719337 
L 329.622215 251.742732 
L 327.848334 250.220556 
L 326.074452 247.748477 
L 324.300571 243.529467 
L 322.52669 235.958099 
L 320.752808 222.156594 
L 318.978927 200.580916 
L 317.205046 185.413447 
L 315.431165 196.247763 
L 313.657283 215.513063 
L 311.883402 229.093138 
L 310.109521 237.276079 
L 308.335639 242.275219 
L 306.561758 245.485228 
L 304.787877 247.655779 
L 303.013996 249.192304 
L 301.240114 250.323287 
L 299.466233 251.183598 
L 297.692352 251.856352 
L 294.144589 252.833745 
L 290.596827 253.500677 
L 287.049064 253.96769 
L 283.501301 254.274555 
L 279.953539 254.398033 
L 278.179658 254.355868 
L 276.405776 254.198492 
L 274.631895 253.852417 
L 272.858014 253.171581 
L 271.084132 251.841632 
L 269.310251 249.105691 
L 267.53637 242.830771 
L 265.762489 225.521562 
L 263.988607 163.693856 
L 262.214726 22.830667 
L 260.440845 135.29224 
L 258.666963 203.829144 
L 256.893082 226.922222 
L 255.119201 236.856815 
L 253.34532 242.029218 
L 251.571438 245.09145 
L 249.797557 247.074442 
L 248.023676 248.4453 
L 246.249794 249.441016 
L 244.475913 250.192623 
L 242.702032 250.777613 
L 239.154269 251.624361 
L 235.606507 252.203014 
L 230.284863 252.783888 
L 223.189338 253.243058 
L 217.867694 253.404968 
L 214.319931 253.393117 
L 210.772169 253.180496 
L 208.998287 252.914308 
L 207.224406 252.423838 
L 205.450525 251.482163 
L 203.676644 249.510255 
L 201.902762 244.769985 
L 200.128881 231.335226 
L 198.355 201.464857 
L 196.581118 210.81902 
L 194.807237 232.812941 
L 193.033356 241.409596 
L 191.259475 244.062742 
L 189.485593 242.667663 
L 187.711712 233.628265 
L 185.937831 215.284475 
L 182.390068 240.642568 
L 180.616187 245.855304 
L 178.842306 248.247702 
L 177.068424 249.532186 
L 175.294543 250.296307 
L 173.520662 250.773349 
L 171.74678 251.064448 
L 169.972899 251.209289 
L 168.199018 251.206602 
L 166.425137 251.007559 
L 164.651255 250.471726 
L 162.877374 249.219094 
L 161.103493 246.103386 
L 159.329611 237.39643 
L 157.55573 220.372975 
L 155.781849 227.217555 
L 154.007968 239.07902 
L 152.234086 243.057291 
L 150.460205 242.745313 
L 148.686324 241.616039 
L 146.912442 244.223856 
L 145.138561 247.134408 
L 143.36468 248.793828 
L 141.590799 249.701783 
L 139.816917 250.218188 
L 138.043036 250.505154 
L 136.269155 250.626116 
L 134.495273 250.584146 
L 132.721392 250.310816 
L 130.947511 249.566508 
L 129.17363 247.49817 
L 127.399748 241.234612 
L 125.625867 236.923505 
L 123.851986 242.691815 
L 122.078104 243.794134 
L 120.304223 240.880099 
L 118.530342 231.637568 
L 116.756461 206.046457 
L 114.982579 167.11682 
L 113.208698 191.218168 
L 111.434817 220.687223 
L 109.660935 233.764192 
L 107.887054 239.874245 
L 106.113173 243.132941 
L 104.339292 245.065677 
L 102.56541 246.305552 
L 100.791529 247.148483 
L 99.017648 247.747034 
L 95.469885 248.516802 
L 91.922123 248.967199 
L 86.600479 249.33996 
L 79.504954 249.554767 
L 68.861666 249.600663 
L 52.896734 249.402595 
L 44.027328 249.224753 
L 44.027328 249.224753 
" clip-path="url(#pbbd2fa873e)" style="fill: none; stroke: #ff0000; stroke-width: 1.5; stroke-linecap: square"/>
   </g>
   <g id="line2d_17">
    <path d="M 700.363404 244.392839 
L 698.589522 244.531051 
L 696.815641 241.658902 
L 695.04176 245.614853 
L 693.267879 244.375035 
L 689.720116 244.668335 
L 687.946235 246.161532 
L 686.172353 242.75273 
L 684.398472 244.515971 
L 682.624591 244.459932 
L 680.85071 245.864723 
L 679.076828 246.114157 
L 675.529066 246.793252 
L 673.755184 247.665202 
L 671.981303 247.516077 
L 670.207422 246.918508 
L 668.433541 245.040665 
L 666.659659 245.046482 
L 664.885778 244.722016 
L 663.111897 246.100904 
L 661.338015 242.543723 
L 659.564134 244.683472 
L 657.790253 244.64592 
L 656.016372 248.747035 
L 654.24249 246.348414 
L 652.468609 245.624064 
L 650.694728 248.925383 
L 648.920846 248.21224 
L 647.146965 246.105863 
L 645.373084 244.653066 
L 643.599203 246.719865 
L 641.825321 246.53765 
L 640.05144 246.242453 
L 638.277559 244.709082 
L 636.503677 247.504207 
L 634.729796 245.061609 
L 632.955915 245.064373 
L 631.182034 247.239048 
L 629.408152 246.007144 
L 624.086508 238.384336 
L 622.312627 234.218542 
L 620.538746 230.594963 
L 618.764865 223.719091 
L 616.990983 215.459767 
L 615.217102 205.771645 
L 613.443221 203.195401 
L 611.669339 210.280559 
L 609.895458 217.876834 
L 608.121577 228.200914 
L 606.347696 229.232286 
L 604.573814 236.213516 
L 602.799933 238.043572 
L 601.026052 239.590577 
L 599.25217 240.070987 
L 597.478289 241.905682 
L 595.704408 239.915109 
L 593.930527 246.524504 
L 592.156645 244.122637 
L 590.382764 246.146564 
L 588.608883 243.327118 
L 585.06112 246.7748 
L 583.287239 249.352833 
L 581.513357 245.406407 
L 579.739476 247.914445 
L 577.965595 248.432131 
L 576.191714 244.544896 
L 574.417832 249.592752 
L 572.643951 245.748152 
L 570.87007 246.431404 
L 569.096188 249.318546 
L 567.322307 250.858006 
L 565.548426 247.959629 
L 563.774545 248.49342 
L 562.000663 248.515267 
L 560.226782 247.066918 
L 558.452901 250.027019 
L 556.679019 248.598713 
L 553.131257 247.830666 
L 551.357376 245.954956 
L 549.583494 246.512046 
L 547.809613 249.681277 
L 546.035732 245.73318 
L 544.26185 248.021575 
L 542.487969 247.120791 
L 540.714088 246.664779 
L 538.940207 248.641976 
L 537.166325 251.026475 
L 535.392444 248.0605 
L 533.618563 250.071955 
L 531.844681 248.697749 
L 530.0708 246.860634 
L 528.296919 249.576501 
L 526.523038 250.055785 
L 524.749156 252.041765 
L 522.975275 251.854598 
L 521.201394 250.724796 
L 519.427512 249.827939 
L 517.653631 251.672198 
L 515.87975 251.299224 
L 514.105869 248.291507 
L 512.331987 252.762185 
L 510.558106 251.177574 
L 508.784225 247.705928 
L 507.010343 251.650263 
L 505.236462 251.275356 
L 503.462581 252.402144 
L 501.6887 250.225145 
L 499.914818 252.456056 
L 498.140937 250.558443 
L 496.367056 251.09156 
L 494.593174 250.801404 
L 492.819293 249.958075 
L 491.045412 252.649545 
L 489.271531 252.795629 
L 487.497649 250.85892 
L 485.723768 252.509578 
L 483.949887 251.90229 
L 482.176005 252.632472 
L 480.402124 250.860624 
L 478.628243 252.791664 
L 476.854362 248.293297 
L 475.08048 249.111283 
L 473.306599 252.214736 
L 471.532718 250.986795 
L 469.758836 253.118621 
L 467.984955 250.839301 
L 466.211074 252.650711 
L 464.437193 252.788309 
L 462.663311 251.803345 
L 460.88943 249.785206 
L 459.115549 255.532126 
L 457.341667 251.107124 
L 455.567786 253.98 
L 453.793905 251.262097 
L 452.020024 251.956286 
L 450.246142 254.589577 
L 448.472261 253.7624 
L 446.69838 249.308604 
L 444.924498 245.366418 
L 443.150617 240.310338 
L 441.376736 239.821076 
L 439.602855 241.670449 
L 437.828973 242.450162 
L 436.055092 242.392886 
L 434.281211 243.673834 
L 432.507329 236.675062 
L 430.733448 222.022923 
L 428.959567 190.569481 
L 427.185686 170.091846 
L 425.411804 185.512411 
L 423.637923 212.680821 
L 421.864042 228.665629 
L 420.09016 235.345681 
L 418.316279 237.129998 
L 416.542398 244.679881 
L 414.768517 244.438255 
L 412.994635 245.047553 
L 411.220754 250.307806 
L 409.446873 249.17137 
L 407.672991 250.799188 
L 405.89911 250.380202 
L 404.125229 250.982719 
L 402.351348 252.019846 
L 400.577466 250.897734 
L 398.803585 251.733761 
L 397.029704 253.109808 
L 395.255822 251.845242 
L 393.481941 254.926608 
L 389.934179 252.267799 
L 388.160297 253.859256 
L 386.386416 252.024473 
L 382.838653 255.899915 
L 381.064772 254.45599 
L 379.290891 254.942972 
L 377.51701 254.433521 
L 375.743128 254.508269 
L 373.969247 253.843942 
L 372.195366 249.597155 
L 370.421484 256.618622 
L 368.647603 253.429287 
L 366.873722 256.199958 
L 365.099841 253.235614 
L 361.552078 255.771563 
L 359.778197 255.662289 
L 356.230434 253.952293 
L 354.456553 253.613208 
L 352.682672 255.829999 
L 350.90879 256.914421 
L 349.134909 254.791477 
L 347.361028 255.250096 
L 345.587146 254.267283 
L 343.813265 254.539353 
L 342.039384 254.44836 
L 340.265503 250.668176 
L 338.491621 252.736992 
L 336.71774 256.600023 
L 334.943859 253.156643 
L 333.169977 252.95122 
L 331.396096 253.888397 
L 329.622215 251.125092 
L 327.848334 250.010271 
L 326.074452 247.032108 
L 324.300571 244.370916 
L 322.52669 239.067624 
L 320.752808 221.700431 
L 318.978927 200.506947 
L 317.205046 185.679546 
L 315.431165 197.48399 
L 311.883402 228.405258 
L 310.109521 237.119999 
L 308.335639 242.243481 
L 306.561758 245.300814 
L 304.787877 246.166553 
L 303.013996 252.253643 
L 301.240114 248.979357 
L 299.466233 249.041434 
L 297.692352 251.908324 
L 295.91847 250.724141 
L 294.144589 252.179314 
L 292.370708 251.838173 
L 290.596827 253.068595 
L 288.822945 250.931623 
L 287.049064 252.934676 
L 285.275183 258.267645 
L 283.501301 252.833709 
L 281.72742 254.642273 
L 279.953539 251.654908 
L 278.179658 251.370672 
L 276.405776 254.042229 
L 274.631895 255.957989 
L 272.858014 253.526998 
L 271.084132 251.523977 
L 269.310251 248.318864 
L 267.53637 243.704638 
L 265.762489 227.317792 
L 263.988607 163.614409 
L 262.214726 22.584174 
L 260.440845 133.775481 
L 258.666963 204.526552 
L 256.893082 227.550388 
L 255.119201 235.866329 
L 253.34532 241.709815 
L 251.571438 245.340851 
L 249.797557 248.648709 
L 248.023676 248.697294 
L 246.249794 246.687061 
L 244.475913 246.822316 
L 242.702032 250.150109 
L 240.928151 249.444193 
L 239.154269 255.637716 
L 237.380388 251.477966 
L 235.606507 249.500069 
L 233.832625 252.10281 
L 232.058744 251.634123 
L 230.284863 250.708648 
L 228.510982 250.788576 
L 226.7371 252.726032 
L 224.963219 249.895266 
L 223.189338 251.514622 
L 221.415456 256.072943 
L 219.641575 251.510932 
L 217.867694 253.253441 
L 216.093813 253.183616 
L 214.319931 253.490449 
L 212.54605 252.799006 
L 210.772169 250.258063 
L 208.998287 253.869341 
L 207.224406 250.804449 
L 205.450525 249.183532 
L 203.676644 247.097523 
L 201.902762 247.055333 
L 200.128881 232.180647 
L 198.355 200.523369 
L 196.581118 210.920114 
L 194.807237 232.944048 
L 193.033356 242.689997 
L 191.259475 243.545956 
L 189.485593 241.607695 
L 187.711712 235.604048 
L 185.937831 214.021385 
L 184.163949 226.022797 
L 182.390068 241.201948 
L 180.616187 245.674974 
L 178.842306 247.458718 
L 177.068424 250.750251 
L 175.294543 249.914117 
L 173.520662 251.900694 
L 171.74678 251.3354 
L 169.972899 249.595456 
L 168.199018 251.183859 
L 166.425137 251.034324 
L 164.651255 251.644447 
L 162.877374 250.685006 
L 161.103493 246.326472 
L 159.329611 236.419615 
L 157.55573 220.877843 
L 155.781849 224.652932 
L 154.007968 241.362184 
L 152.234086 238.729142 
L 150.460205 243.662736 
L 148.686324 241.559338 
L 146.912442 242.869226 
L 145.138561 247.555685 
L 143.36468 248.63505 
L 141.590799 251.255167 
L 139.816917 251.020693 
L 138.043036 248.823999 
L 136.269155 251.067825 
L 134.495273 250.061646 
L 132.721392 251.254383 
L 130.947511 251.69655 
L 129.17363 247.789959 
L 125.625867 236.930717 
L 123.851986 241.25012 
L 122.078104 244.465481 
L 120.304223 240.405877 
L 118.530342 231.494592 
L 116.756461 206.608499 
L 114.982579 165.458676 
L 113.208698 192.775888 
L 111.434817 217.449321 
L 109.660935 231.852907 
L 107.887054 240.47195 
L 106.113173 239.462133 
L 104.339292 244.561914 
L 102.56541 247.15261 
L 100.791529 248.386751 
L 99.017648 248.316368 
L 97.243766 248.756764 
L 95.469885 245.902209 
L 93.696004 250.118103 
L 91.922123 250.438577 
L 90.148241 251.499984 
L 88.37436 248.590733 
L 86.600479 247.211105 
L 84.826597 248.277951 
L 83.052716 247.113346 
L 81.278835 245.442906 
L 79.504954 247.65153 
L 77.731072 248.967773 
L 75.957191 251.949279 
L 74.18331 252.645837 
L 72.409428 250.375658 
L 70.635547 248.960398 
L 68.861666 251.226496 
L 67.087785 248.880837 
L 65.313903 252.324434 
L 63.540022 247.47989 
L 61.766141 248.97989 
L 59.992259 250.123554 
L 58.218378 250.199324 
L 56.444497 248.696152 
L 54.670616 251.266036 
L 52.896734 249.39774 
L 51.122853 251.442709 
L 49.348972 248.330002 
L 47.57509 247.190795 
L 45.801209 250.985197 
L 44.027328 248.549891 
L 44.027328 248.549891 
" clip-path="url(#pbbd2fa873e)" style="fill: none; stroke: #000000; stroke-opacity: 0.2; stroke-width: 1.5; stroke-linecap: square"/>
   </g>
   <g id="line2d_18">
    <path d="M 700.363404 243.670628 
L 698.589522 243.768674 
L 696.815641 240.856017 
L 695.04176 244.771139 
L 693.267879 243.490194 
L 689.720116 243.700454 
L 687.946235 245.151802 
L 686.172353 241.700981 
L 684.398472 243.422077 
L 682.624591 243.323818 
L 680.85071 244.686371 
L 679.076828 244.893618 
L 675.529066 245.48881 
L 673.755184 246.31924 
L 671.981303 246.129041 
L 670.207422 245.49099 
L 668.433541 243.573427 
L 666.659659 243.54049 
L 664.885778 243.178479 
L 663.111897 244.521324 
L 661.338015 240.929951 
L 659.564134 243.037788 
L 657.790253 242.971123 
L 656.016372 247.046567 
L 654.24249 244.626511 
L 652.468609 243.885954 
L 650.694728 247.177544 
L 648.920846 246.462743 
L 647.146965 244.364821 
L 645.373084 242.93325 
L 643.599203 245.037539 
L 640.05144 244.704178 
L 638.277559 243.292338 
L 636.503677 246.257026 
L 634.729796 244.049362 
L 632.955915 244.377758 
L 631.182034 247.006668 
L 629.408152 246.415848 
L 627.634271 244.755512 
L 625.86039 243.653423 
L 624.086508 243.086197 
L 622.312627 242.033762 
L 620.538746 243.257289 
L 618.764865 243.728466 
L 616.990983 245.215528 
L 613.443221 243.502823 
L 611.669339 244.486893 
L 609.895458 243.324894 
L 608.121577 246.185162 
L 606.347696 241.832671 
L 604.573814 245.075545 
L 602.799933 244.283437 
L 601.026052 243.942882 
L 599.25217 243.0239 
L 597.478289 243.791019 
L 595.704408 240.964283 
L 593.930527 246.903016 
L 592.156645 243.95164 
L 590.382764 245.51664 
L 588.608883 242.307288 
L 585.06112 245.124226 
L 583.287239 247.441505 
L 581.513357 243.261433 
L 579.739476 245.557958 
L 577.965595 245.882383 
L 576.191714 241.817075 
L 574.417832 246.699603 
L 572.643951 242.70045 
L 570.87007 243.23832 
L 569.096188 245.98794 
L 567.322307 247.396649 
L 565.548426 244.373389 
L 563.774545 244.787409 
L 562.000663 244.693955 
L 560.226782 243.134235 
L 558.452901 245.98643 
L 556.679019 244.45329 
L 553.131257 243.483467 
L 551.357376 241.510264 
L 549.583494 241.971817 
L 547.809613 245.047271 
L 546.035732 241.006984 
L 544.26185 243.204628 
L 542.487969 242.214397 
L 540.714088 241.670127 
L 538.940207 243.560146 
L 537.166325 245.858459 
L 535.392444 242.807206 
L 533.618563 244.734216 
L 531.844681 243.276334 
L 530.0708 241.356254 
L 528.296919 243.989814 
L 526.523038 244.387403 
L 524.749156 246.292261 
L 522.975275 246.024507 
L 521.201394 244.814621 
L 519.427512 243.838158 
L 517.653631 245.603265 
L 515.87975 245.151576 
L 514.105869 242.065564 
L 512.331987 246.45836 
L 510.558106 244.796276 
L 508.784225 241.247568 
L 507.010343 245.115261 
L 505.236462 244.66415 
L 503.462581 245.715205 
L 501.6887 243.462989 
L 499.914818 245.619269 
L 498.140937 243.647712 
L 496.367056 244.10772 
L 494.593174 243.745513 
L 492.819293 242.831529 
L 491.045412 245.454272 
L 489.271531 245.534432 
L 487.497649 243.53611 
L 485.723768 245.13223 
L 483.949887 244.482932 
L 482.176005 245.195407 
L 480.402124 243.458289 
L 478.628243 245.549366 
L 476.854362 241.495225 
L 475.08048 242.865723 
L 473.306599 245.570701 
L 471.532718 243.737833 
L 469.758836 245.524131 
L 467.984955 243.046328 
L 466.211074 244.729526 
L 464.437193 244.777423 
L 462.663311 243.728744 
L 460.88943 241.668982 
L 459.115549 247.397449 
L 457.341667 242.982491 
L 455.567786 245.904635 
L 453.793905 243.294805 
L 452.020024 244.192323 
L 450.246142 247.196493 
L 448.472261 247.064147 
L 446.69838 243.998987 
L 444.924498 243.010971 
L 443.150617 243.329451 
L 441.376736 245.238446 
L 439.602855 243.493215 
L 437.828973 242.019709 
L 436.055092 242.177514 
L 434.281211 246.108895 
L 430.733448 245.07625 
L 428.959567 241.516655 
L 427.185686 245.64036 
L 425.411804 243.24227 
L 423.637923 244.116267 
L 421.864042 244.707918 
L 420.09016 243.068715 
L 418.316279 240.052705 
L 416.542398 244.608713 
L 414.768517 242.37019 
L 412.994635 241.57235 
L 411.220754 245.795602 
L 409.446873 243.866202 
L 407.672991 244.868695 
L 405.89911 243.943588 
L 404.125229 244.127263 
L 402.351348 244.811076 
L 400.577466 243.385934 
L 398.803585 243.958256 
L 397.029704 245.101883 
L 395.255822 243.630157 
L 393.481941 246.525041 
L 389.934179 243.541926 
L 388.160297 244.990598 
L 386.386416 243.023458 
L 382.838653 246.660099 
L 381.064772 245.107652 
L 379.290891 245.492294 
L 377.51701 244.886063 
L 375.743128 244.869089 
L 373.969247 244.117694 
L 372.195366 239.788179 
L 370.421484 246.731025 
L 368.647603 243.467014 
L 366.873722 246.166868 
L 365.099841 243.135554 
L 361.552078 245.549459 
L 359.778197 245.38553 
L 356.230434 243.580893 
L 354.456553 243.203087 
L 352.682672 245.388106 
L 350.90879 246.449013 
L 349.134909 244.31255 
L 347.361028 244.769994 
L 345.587146 243.801527 
L 343.813265 244.107831 
L 342.039384 244.077036 
L 340.265503 240.39162 
L 338.491621 242.602217 
L 336.71774 246.672451 
L 334.943859 243.529685 
L 333.169977 243.762193 
L 331.396096 245.346048 
L 329.622215 243.559349 
L 327.848334 243.966703 
L 326.074452 243.46062 
L 324.300571 245.018437 
L 322.52669 247.286513 
L 320.752808 243.720825 
L 317.205046 244.443087 
L 315.431165 245.413215 
L 313.657283 241.714701 
L 311.883402 243.489109 
L 310.109521 244.020909 
L 308.335639 244.145251 
L 306.561758 243.992574 
L 304.787877 242.687762 
L 303.013996 247.238327 
L 301.240114 242.833059 
L 299.466233 242.034824 
L 297.692352 244.22896 
L 295.91847 242.506413 
L 294.144589 243.522557 
L 292.370708 242.818109 
L 290.596827 243.744907 
L 288.822945 241.353276 
L 287.049064 243.143975 
L 285.275183 248.303736 
L 283.501301 242.736143 
L 281.72742 244.455341 
L 279.953539 241.433863 
L 278.179658 241.191792 
L 276.405776 244.020725 
L 274.631895 246.28256 
L 272.858014 244.532406 
L 271.084132 243.859333 
L 269.310251 243.390161 
L 267.53637 245.050855 
L 265.762489 245.973218 
L 263.988607 244.097542 
L 262.214726 243.930495 
L 260.440845 242.660229 
L 258.666963 244.874396 
L 256.893082 244.805154 
L 255.119201 243.186502 
L 251.571438 244.42639 
L 249.797557 245.751256 
L 248.023676 244.428981 
L 246.249794 241.423034 
L 244.475913 240.806682 
L 242.702032 243.549485 
L 240.928151 242.376833 
L 239.154269 248.190343 
L 237.380388 243.715985 
L 235.606507 241.474044 
L 233.832625 243.852724 
L 232.058744 243.192287 
L 230.284863 242.101748 
L 228.510982 242.039185 
L 226.7371 243.853779 
L 224.963219 240.917812 
L 223.189338 242.448552 
L 221.415456 246.934695 
L 219.641575 242.3179 
L 217.867694 244.025461 
L 216.093813 243.945185 
L 214.319931 244.27432 
L 212.54605 243.652452 
L 210.772169 241.254556 
L 208.998287 245.132021 
L 207.224406 242.557599 
L 205.450525 241.878358 
L 203.676644 241.764256 
L 201.902762 246.462336 
L 200.128881 245.022409 
L 198.355 243.235501 
L 196.581118 244.278082 
L 194.807237 244.308095 
L 193.033356 245.457389 
L 191.259475 243.660202 
L 189.485593 243.11702 
L 187.711712 246.152771 
L 185.937831 242.913898 
L 184.163949 242.484072 
L 182.390068 244.736368 
L 180.616187 243.996658 
L 178.842306 243.388004 
L 177.068424 245.395053 
L 175.294543 243.794799 
L 173.520662 245.304333 
L 171.74678 244.44794 
L 169.972899 242.563155 
L 168.199018 244.154245 
L 166.425137 244.203753 
L 164.651255 245.349709 
L 162.877374 245.6429 
L 159.329611 243.200173 
L 157.55573 244.681857 
L 155.781849 241.612366 
L 154.007968 246.460153 
L 152.234086 239.84884 
L 150.460205 245.094412 
L 148.686324 244.120287 
L 146.912442 242.822358 
L 145.138561 244.598265 
L 143.36468 244.018209 
L 141.590799 245.730373 
L 139.816917 244.979494 
L 138.043036 242.495833 
L 136.269155 244.618697 
L 134.495273 243.654488 
L 132.721392 245.120556 
L 130.947511 246.307031 
L 129.17363 244.468778 
L 127.399748 245.181571 
L 125.625867 244.1842 
L 123.851986 242.735293 
L 122.078104 244.848336 
L 120.304223 243.702766 
L 118.530342 244.034013 
L 116.756461 244.73903 
L 114.982579 242.518844 
L 113.208698 245.734708 
L 111.434817 240.939086 
L 109.660935 242.265703 
L 107.887054 244.774693 
L 106.113173 240.50618 
L 104.339292 243.673225 
L 102.56541 245.024047 
L 100.791529 245.415256 
L 99.017648 244.746322 
L 97.243766 244.747464 
L 95.469885 241.562395 
L 93.696004 245.524876 
L 91.922123 245.648367 
L 90.148241 246.555217 
L 88.37436 243.524053 
L 86.600479 242.048132 
L 84.826597 243.039155 
L 83.052716 241.815329 
L 81.278835 240.099323 
L 79.504954 242.273751 
L 77.731072 243.565367 
L 75.957191 246.530385 
L 74.18331 247.217434 
L 72.409428 244.943783 
L 70.635547 243.530314 
L 68.861666 245.802821 
L 67.087785 243.467647 
L 65.313903 246.925351 
L 63.540022 242.098146 
L 61.766141 243.618387 
L 59.992259 244.784905 
L 58.218378 244.885896 
L 56.444497 243.410094 
L 54.670616 246.009308 
L 52.896734 244.172133 
L 51.122853 246.249868 
L 49.348972 243.17144 
L 47.57509 242.067908 
L 45.801209 245.899274 
L 44.027328 243.502126 
L 44.027328 243.502126 
" clip-path="url(#pbbd2fa873e)" style="fill: none; stroke-dasharray: 5.55,2.4; stroke-dashoffset: 0; stroke: #008000; stroke-opacity: 0.5; stroke-width: 1.5"/>
   </g>
   <g id="patch_3">
    <path d="M 45.34 270.051818 
L 45.34 10.8 
" style="fill: none; stroke: #000000; stroke-width: 0.8; stroke-linejoin: miter; stroke-linecap: square"/>
   </g>
   <g id="patch_4">
    <path d="M 698.625 270.051818 
L 698.625 10.8 
" style="fill: none; stroke: #000000; stroke-width: 0.8; stroke-linejoin: miter; stroke-linecap: square"/>
   </g>
   <g id="patch_5">
    <path d="M 45.34 270.051818 
L 698.625 270.051818 
" style="fill: none; stroke: #000000; stroke-width: 0.8; stroke-linejoin: miter; stroke-linecap: square"/>
   </g>
   <g id="patch_6">
    <path d="M 45.34 10.8 
L 698.625 10.8 
" style="fill: none; stroke: #000000; stroke-width: 0.8; stroke-linejoin: miter; stroke-linecap: square"/>
   </g>
   <g id="legend_1">
    <g id="patch_7">
     <path d="M 568.857813 62.834375 
L 691.625 62.834375 
Q 693.625 62.834375 693.625 60.834375 
L 693.625 17.8 
Q 693.625 15.8 691.625 15.8 
L 568.857813 15.8 
Q 566.857813 15.8 566.857813 17.8 
L 566.857813 60.834375 
Q 566.857813 62.834375 568.857813 62.834375 
z
" style="fill: #ffffff; opacity: 0.8; stroke: #cccccc; stroke-linejoin: miter"/>
    </g>
    <g id="line2d_19">
     <path d="M 570.857813 23.898438 
L 580.857813 23.898438 
L 590.857813 23.898438 
" style="fill: none; stroke: #ff0000; stroke-width: 1.5; stroke-linecap: square"/>
    </g>
    <g id="text_9">
     <!-- Fitted Spectrum -->
     <g transform="translate(598.857813 27.398438)scale(0.1 -0.1)">
      <defs>
       <path id="DejaVuSans-46" d="M 628 4666 
L 3309 4666 
L 3309 4134 
L 1259 4134 
L 1259 2759 
L 3109 2759 
L 3109 2228 
L 1259 2228 
L 1259 0 
L 628 0 
L 628 4666 
z
" transform="scale(0.015625)"/>
       <path id="DejaVuSans-69" d="M 603 3500 
L 1178 3500 
L 1178 0 
L 603 0 
L 603 3500 
z
M 603 4863 
L 1178 4863 
L 1178 4134 
L 603 4134 
L 603 4863 
z
" transform="scale(0.015625)"/>
       <path id="DejaVuSans-74" d="M 1172 4494 
L 1172 3500 
L 2356 3500 
L 2356 3053 
L 1172 3053 
L 1172 1153 
Q 1172 725 1289 603 
Q 1406 481 1766 481 
L 2356 481 
L 2356 0 
L 1766 0 
Q 1100 0 847 248 
Q 594 497 594 1153 
L 594 3053 
L 172 3053 
L 172 3500 
L 594 3500 
L 594 4494 
L 1172 4494 
z
" transform="scale(0.015625)"/>
       <path id="DejaVuSans-65" d="M 3597 1894 
L 3597 1613 
L 953 1613 
Q 991 1019 1311 708 
Q 1631 397 2203 397 
Q 2534 397 2845 478 
Q 3156 559 3463 722 
L 3463 178 
Q 3153 47 2828 -22 
Q 2503 -91 2169 -91 
Q 1331 -91 842 396 
Q 353 884 353 1716 
Q 353 2575 817 3079 
Q 1281 3584 2069 3584 
Q 2775 3584 3186 3129 
Q 3597 2675 3597 1894 
z
M 3022 2063 
Q 3016 2534 2758 2815 
Q 2500 3097 2075 3097 
Q 1594 3097 1305 2825 
Q 1016 2553 972 2059 
L 3022 2063 
z
" transform="scale(0.015625)"/>
       <path id="DejaVuSans-64" d="M 2906 2969 
L 2906 4863 
L 3481 4863 
L 3481 0 
L 2906 0 
L 2906 525 
Q 2725 213 2448 61 
Q 2172 -91 1784 -91 
Q 1150 -91 751 415 
Q 353 922 353 1747 
Q 353 2572 751 3078 
Q 1150 3584 1784 3584 
Q 2172 3584 2448 3432 
Q 2725 3281 2906 2969 
z
M 947 1747 
Q 947 1113 1208 752 
Q 1469 391 1925 391 
Q 2381 391 2643 752 
Q 2906 1113 2906 1747 
Q 2906 2381 2643 2742 
Q 2381 3103 1925 3103 
Q 1469 3103 1208 2742 
Q 947 2381 947 1747 
z
" transform="scale(0.015625)"/>
       <path id="DejaVuSans-20" transform="scale(0.015625)"/>
       <path id="DejaVuSans-53" d="M 3425 4513 
L 3425 3897 
Q 3066 4069 2747 4153 
Q 2428 4238 2131 4238 
Q 1616 4238 1336 4038 
Q 1056 3838 1056 3469 
Q 1056 3159 1242 3001 
Q 1428 2844 1947 2747 
L 2328 2669 
Q 3034 2534 3370 2195 
Q 3706 1856 3706 1288 
Q 3706 609 3251 259 
Q 2797 -91 1919 -91 
Q 1588 -91 1214 -16 
Q 841 59 441 206 
L 441 856 
Q 825 641 1194 531 
Q 1563 422 1919 422 
Q 2459 422 2753 634 
Q 3047 847 3047 1241 
Q 3047 1584 2836 1778 
Q 2625 1972 2144 2069 
L 1759 2144 
Q 1053 2284 737 2584 
Q 422 2884 422 3419 
Q 422 4038 858 4394 
Q 1294 4750 2059 4750 
Q 2388 4750 2728 4690 
Q 3069 4631 3425 4513 
z
" transform="scale(0.015625)"/>
       <path id="DejaVuSans-70" d="M 1159 525 
L 1159 -1331 
L 581 -1331 
L 581 3500 
L 1159 3500 
L 1159 2969 
Q 1341 3281 1617 3432 
Q 1894 3584 2278 3584 
Q 2916 3584 3314 3078 
Q 3713 2572 3713 1747 
Q 3713 922 3314 415 
Q 2916 -91 2278 -91 
Q 1894 -91 1617 61 
Q 1341 213 1159 525 
z
M 3116 1747 
Q 3116 2381 2855 2742 
Q 2594 3103 2138 3103 
Q 1681 3103 1420 2742 
Q 1159 2381 1159 1747 
Q 1159 1113 1420 752 
Q 1681 391 2138 391 
Q 2594 391 2855 752 
Q 3116 1113 3116 1747 
z
" transform="scale(0.015625)"/>
       <path id="DejaVuSans-63" d="M 3122 3366 
L 3122 2828 
Q 2878 2963 2633 3030 
Q 2388 3097 2138 3097 
Q 1578 3097 1268 2742 
Q 959 2388 959 1747 
Q 959 1106 1268 751 
Q 1578 397 2138 397 
Q 2388 397 2633 464 
Q 2878 531 3122 666 
L 3122 134 
Q 2881 22 2623 -34 
Q 2366 -91 2075 -91 
Q 1284 -91 818 406 
Q 353 903 353 1747 
Q 353 2603 823 3093 
Q 1294 3584 2113 3584 
Q 2378 3584 2631 3529 
Q 2884 3475 3122 3366 
z
" transform="scale(0.015625)"/>
       <path id="DejaVuSans-72" d="M 2631 2963 
Q 2534 3019 2420 3045 
Q 2306 3072 2169 3072 
Q 1681 3072 1420 2755 
Q 1159 2438 1159 1844 
L 1159 0 
L 581 0 
L 581 3500 
L 1159 3500 
L 1159 2956 
Q 1341 3275 1631 3429 
Q 1922 3584 2338 3584 
Q 2397 3584 2469 3576 
Q 2541 3569 2628 3553 
L 2631 2963 
z
" transform="scale(0.015625)"/>
       <path id="DejaVuSans-75" d="M 544 1381 
L 544 3500 
L 1119 3500 
L 1119 1403 
Q 1119 906 1312 657 
Q 1506 409 1894 409 
Q 2359 409 2629 706 
Q 2900 1003 2900 1516 
L 2900 3500 
L 3475 3500 
L 3475 0 
L 2900 0 
L 2900 538 
Q 2691 219 2414 64 
Q 2138 -91 1772 -91 
Q 1169 -91 856 284 
Q 544 659 544 1381 
z
M 1991 3584 
L 1991 3584 
z
" transform="scale(0.015625)"/>
       <path id="DejaVuSans-6d" d="M 3328 2828 
Q 3544 3216 3844 3400 
Q 4144 3584 4550 3584 
Q 5097 3584 5394 3201 
Q 5691 2819 5691 2113 
L 5691 0 
L 5113 0 
L 5113 2094 
Q 5113 2597 4934 2840 
Q 4756 3084 4391 3084 
Q 3944 3084 3684 2787 
Q 3425 2491 3425 1978 
L 3425 0 
L 2847 0 
L 2847 2094 
Q 2847 2600 2669 2842 
Q 2491 3084 2119 3084 
Q 1678 3084 1418 2786 
Q 1159 2488 1159 1978 
L 1159 0 
L 581 0 
L 581 3500 
L 1159 3500 
L 1159 2956 
Q 1356 3278 1631 3431 
Q 1906 3584 2284 3584 
Q 2666 3584 2933 3390 
Q 3200 3197 3328 2828 
z
" transform="scale(0.015625)"/>
      </defs>
      <use xlink:href="#DejaVuSans-46"/>
      <use xlink:href="#DejaVuSans-69" x="50.269531"/>
      <use xlink:href="#DejaVuSans-74" x="78.052734"/>
      <use xlink:href="#DejaVuSans-74" x="117.261719"/>
      <use xlink:href="#DejaVuSans-65" x="156.470703"/>
      <use xlink:href="#DejaVuSans-64" x="217.994141"/>
      <use xlink:href="#DejaVuSans-20" x="281.470703"/>
      <use xlink:href="#DejaVuSans-53" x="313.257812"/>
      <use xlink:href="#DejaVuSans-70" x="376.734375"/>
      <use xlink:href="#DejaVuSans-65" x="440.210938"/>
      <use xlink:href="#DejaVuSans-63" x="501.734375"/>
      <use xlink:href="#DejaVuSans-74" x="556.714844"/>
      <use xlink:href="#DejaVuSans-72" x="595.923828"/>
      <use xlink:href="#DejaVuSans-75" x="637.037109"/>
      <use xlink:href="#DejaVuSans-6d" x="700.416016"/>
     </g>
    </g>
    <g id="line2d_20">
     <path d="M 570.857813 38.576563 
L 580.857813 38.576563 
L 590.857813 38.576563 
" style="fill: none; stroke: #000000; stroke-opacity: 0.2; stroke-width: 1.5; stroke-linecap: square"/>
    </g>
    <g id="text_10">
     <!-- Original Spectrum -->
     <g transform="translate(598.857813 42.076563)scale(0.1 -0.1)">
      <defs>
       <path id="DejaVuSans-4f" d="M 2522 4238 
Q 1834 4238 1429 3725 
Q 1025 3213 1025 2328 
Q 1025 1447 1429 934 
Q 1834 422 2522 422 
Q 3209 422 3611 934 
Q 4013 1447 4013 2328 
Q 4013 3213 3611 3725 
Q 3209 4238 2522 4238 
z
M 2522 4750 
Q 3503 4750 4090 4092 
Q 4678 3434 4678 2328 
Q 4678 1225 4090 567 
Q 3503 -91 2522 -91 
Q 1538 -91 948 565 
Q 359 1222 359 2328 
Q 359 3434 948 4092 
Q 1538 4750 2522 4750 
z
" transform="scale(0.015625)"/>
       <path id="DejaVuSans-67" d="M 2906 1791 
Q 2906 2416 2648 2759 
Q 2391 3103 1925 3103 
Q 1463 3103 1205 2759 
Q 947 2416 947 1791 
Q 947 1169 1205 825 
Q 1463 481 1925 481 
Q 2391 481 2648 825 
Q 2906 1169 2906 1791 
z
M 3481 434 
Q 3481 -459 3084 -895 
Q 2688 -1331 1869 -1331 
Q 1566 -1331 1297 -1286 
Q 1028 -1241 775 -1147 
L 775 -588 
Q 1028 -725 1275 -790 
Q 1522 -856 1778 -856 
Q 2344 -856 2625 -561 
Q 2906 -266 2906 331 
L 2906 616 
Q 2728 306 2450 153 
Q 2172 0 1784 0 
Q 1141 0 747 490 
Q 353 981 353 1791 
Q 353 2603 747 3093 
Q 1141 3584 1784 3584 
Q 2172 3584 2450 3431 
Q 2728 3278 2906 2969 
L 2906 3500 
L 3481 3500 
L 3481 434 
z
" transform="scale(0.015625)"/>
       <path id="DejaVuSans-6e" d="M 3513 2113 
L 3513 0 
L 2938 0 
L 2938 2094 
Q 2938 2591 2744 2837 
Q 2550 3084 2163 3084 
Q 1697 3084 1428 2787 
Q 1159 2491 1159 1978 
L 1159 0 
L 581 0 
L 581 3500 
L 1159 3500 
L 1159 2956 
Q 1366 3272 1645 3428 
Q 1925 3584 2291 3584 
Q 2894 3584 3203 3211 
Q 3513 2838 3513 2113 
z
" transform="scale(0.015625)"/>
       <path id="DejaVuSans-61" d="M 2194 1759 
Q 1497 1759 1228 1600 
Q 959 1441 959 1056 
Q 959 750 1161 570 
Q 1363 391 1709 391 
Q 2188 391 2477 730 
Q 2766 1069 2766 1631 
L 2766 1759 
L 2194 1759 
z
M 3341 1997 
L 3341 0 
L 2766 0 
L 2766 531 
Q 2569 213 2275 61 
Q 1981 -91 1556 -91 
Q 1019 -91 701 211 
Q 384 513 384 1019 
Q 384 1609 779 1909 
Q 1175 2209 1959 2209 
L 2766 2209 
L 2766 2266 
Q 2766 2663 2505 2880 
Q 2244 3097 1772 3097 
Q 1472 3097 1187 3025 
Q 903 2953 641 2809 
L 641 3341 
Q 956 3463 1253 3523 
Q 1550 3584 1831 3584 
Q 2591 3584 2966 3190 
Q 3341 2797 3341 1997 
z
" transform="scale(0.015625)"/>
       <path id="DejaVuSans-6c" d="M 603 4863 
L 1178 4863 
L 1178 0 
L 603 0 
L 603 4863 
z
" transform="scale(0.015625)"/>
      </defs>
      <use xlink:href="#DejaVuSans-4f"/>
      <use xlink:href="#DejaVuSans-72" x="78.710938"/>
      <use xlink:href="#DejaVuSans-69" x="119.824219"/>
      <use xlink:href="#DejaVuSans-67" x="147.607422"/>
      <use xlink:href="#DejaVuSans-69" x="211.083984"/>
      <use xlink:href="#DejaVuSans-6e" x="238.867188"/>
      <use xlink:href="#DejaVuSans-61" x="302.246094"/>
      <use xlink:href="#DejaVuSans-6c" x="363.525391"/>
      <use xlink:href="#DejaVuSans-20" x="391.308594"/>
      <use xlink:href="#DejaVuSans-53" x="423.095703"/>
      <use xlink:href="#DejaVuSans-70" x="486.572266"/>
      <use xlink:href="#DejaVuSans-65" x="550.048828"/>
      <use xlink:href="#DejaVuSans-63" x="611.572266"/>
      <use xlink:href="#DejaVuSans-74" x="666.552734"/>
      <use xlink:href="#DejaVuSans-72" x="705.761719"/>
      <use xlink:href="#DejaVuSans-75" x="746.875"/>
      <use xlink:href="#DejaVuSans-6d" x="810.253906"/>
     </g>
    </g>
    <g id="line2d_21">
     <path d="M 570.857813 53.254688 
L 580.857813 53.254688 
L 590.857813 53.254688 
" style="fill: none; stroke-dasharray: 5.55,2.4; stroke-dashoffset: 0; stroke: #008000; stroke-opacity: 0.5; stroke-width: 1.5"/>
    </g>
    <g id="text_11">
     <!-- Residual -->
     <g transform="translate(598.857813 56.754688)scale(0.1 -0.1)">
      <defs>
       <path id="DejaVuSans-52" d="M 2841 2188 
Q 3044 2119 3236 1894 
Q 3428 1669 3622 1275 
L 4263 0 
L 3584 0 
L 2988 1197 
Q 2756 1666 2539 1819 
Q 2322 1972 1947 1972 
L 1259 1972 
L 1259 0 
L 628 0 
L 628 4666 
L 2053 4666 
Q 2853 4666 3247 4331 
Q 3641 3997 3641 3322 
Q 3641 2881 3436 2590 
Q 3231 2300 2841 2188 
z
M 1259 4147 
L 1259 2491 
L 2053 2491 
Q 2509 2491 2742 2702 
Q 2975 2913 2975 3322 
Q 2975 3731 2742 3939 
Q 2509 4147 2053 4147 
L 1259 4147 
z
" transform="scale(0.015625)"/>
       <path id="DejaVuSans-73" d="M 2834 3397 
L 2834 2853 
Q 2591 2978 2328 3040 
Q 2066 3103 1784 3103 
Q 1356 3103 1142 2972 
Q 928 2841 928 2578 
Q 928 2378 1081 2264 
Q 1234 2150 1697 2047 
L 1894 2003 
Q 2506 1872 2764 1633 
Q 3022 1394 3022 966 
Q 3022 478 2636 193 
Q 2250 -91 1575 -91 
Q 1294 -91 989 -36 
Q 684 19 347 128 
L 347 722 
Q 666 556 975 473 
Q 1284 391 1588 391 
Q 1994 391 2212 530 
Q 2431 669 2431 922 
Q 2431 1156 2273 1281 
Q 2116 1406 1581 1522 
L 1381 1569 
Q 847 1681 609 1914 
Q 372 2147 372 2553 
Q 372 3047 722 3315 
Q 1072 3584 1716 3584 
Q 2034 3584 2315 3537 
Q 2597 3491 2834 3397 
z
" transform="scale(0.015625)"/>
      </defs>
      <use xlink:href="#DejaVuSans-52"/>
      <use xlink:href="#DejaVuSans-65" x="64.982422"/>
      <use xlink:href="#DejaVuSans-73" x="126.505859"/>
      <use xlink:href="#DejaVuSans-69" x="178.605469"/>
      <use xlink:href="#DejaVuSans-64" x="206.388672"/>
      <use xlink:href="#DejaVuSans-75" x="269.865234"/>
      <use xlink:href="#DejaVuSans-61" x="333.244141"/>
      <use xlink:href="#DejaVuSans-6c" x="394.523438"/>
     </g>
    </g>
   </g>
  </g>
  <g id="axes_2">
   <g id="patch_8">
    <path d="M 45.34 548.12 
L 698.625 548.12 
L 698.625 288.868182 
L 45.34 288.868182 
z
" style="fill: #ffffff"/>
   </g>
   <g id="matplotlib.axis_3">
    <g id="xtick_8">
     <g id="line2d_22">
      <g>
       <use xlink:href="#ma1fcd95960" x="698.625" y="548.12" style="stroke: #000000; stroke-width: 0.8"/>
      </g>
     </g>
     <g id="text_12">
      <!-- −20 -->
      <g transform="translate(688.072656 562.718437)scale(0.1 -0.1)">
       <defs>
        <path id="DejaVuSans-2212" d="M 678 2272 
L 4684 2272 
L 4684 1741 
L 678 1741 
L 678 2272 
z
" transform="scale(0.015625)"/>
       </defs>
       <use xlink:href="#DejaVuSans-2212"/>
       <use xlink:href="#DejaVuSans-32" x="83.789062"/>
       <use xlink:href="#DejaVuSans-30" x="147.412109"/>
      </g>
     </g>
    </g>
    <g id="xtick_9">
     <g id="line2d_23">
      <g>
       <use xlink:href="#ma1fcd95960" x="589.744167" y="548.12" style="stroke: #000000; stroke-width: 0.8"/>
      </g>
     </g>
     <g id="text_13">
      <!-- −15 -->
      <g transform="translate(579.191823 562.718437)scale(0.1 -0.1)">
       <use xlink:href="#DejaVuSans-2212"/>
       <use xlink:href="#DejaVuSans-31" x="83.789062"/>
       <use xlink:href="#DejaVuSans-35" x="147.412109"/>
      </g>
     </g>
    </g>
    <g id="xtick_10">
     <g id="line2d_24">
      <g>
       <use xlink:href="#ma1fcd95960" x="480.863333" y="548.12" style="stroke: #000000; stroke-width: 0.8"/>
      </g>
     </g>
     <g id="text_14">
      <!-- −10 -->
      <g transform="translate(470.31099 562.718437)scale(0.1 -0.1)">
       <use xlink:href="#DejaVuSans-2212"/>
       <use xlink:href="#DejaVuSans-31" x="83.789062"/>
       <use xlink:href="#DejaVuSans-30" x="147.412109"/>
      </g>
     </g>
    </g>
    <g id="xtick_11">
     <g id="line2d_25">
      <g>
       <use xlink:href="#ma1fcd95960" x="371.9825" y="548.12" style="stroke: #000000; stroke-width: 0.8"/>
      </g>
     </g>
     <g id="text_15">
      <!-- −5 -->
      <g transform="translate(364.611406 562.718437)scale(0.1 -0.1)">
       <use xlink:href="#DejaVuSans-2212"/>
       <use xlink:href="#DejaVuSans-35" x="83.789062"/>
      </g>
     </g>
    </g>
    <g id="xtick_12">
     <g id="line2d_26">
      <g>
       <use xlink:href="#ma1fcd95960" x="263.101667" y="548.12" style="stroke: #000000; stroke-width: 0.8"/>
      </g>
     </g>
     <g id="text_16">
      <!-- 0 -->
      <g transform="translate(259.920417 562.718437)scale(0.1 -0.1)">
       <use xlink:href="#DejaVuSans-30"/>
      </g>
     </g>
    </g>
    <g id="xtick_13">
     <g id="line2d_27">
      <g>
       <use xlink:href="#ma1fcd95960" x="154.220833" y="548.12" style="stroke: #000000; stroke-width: 0.8"/>
      </g>
     </g>
     <g id="text_17">
      <!-- 5 -->
      <g transform="translate(151.039583 562.718437)scale(0.1 -0.1)">
       <use xlink:href="#DejaVuSans-35"/>
      </g>
     </g>
    </g>
    <g id="xtick_14">
     <g id="line2d_28">
      <g>
       <use xlink:href="#ma1fcd95960" x="45.34" y="548.12" style="stroke: #000000; stroke-width: 0.8"/>
      </g>
     </g>
     <g id="text_18">
      <!-- 10 -->
      <g transform="translate(38.9775 562.718437)scale(0.1 -0.1)">
       <use xlink:href="#DejaVuSans-31"/>
       <use xlink:href="#DejaVuSans-30" x="63.623047"/>
      </g>
     </g>
    </g>
    <g id="text_19">
     <!-- ppm -->
     <g transform="translate(360.76375 576.396562)scale(0.1 -0.1)">
      <use xlink:href="#DejaVuSans-70"/>
      <use xlink:href="#DejaVuSans-70" x="63.476562"/>
      <use xlink:href="#DejaVuSans-6d" x="126.953125"/>
     </g>
    </g>
   </g>
   <g id="matplotlib.axis_4">
    <g id="ytick_9">
     <g id="line2d_29">
      <g>
       <use xlink:href="#m2f2b318ab6" x="45.34" y="544.223267" style="stroke: #000000; stroke-width: 0.8"/>
      </g>
     </g>
     <g id="text_20">
      <!-- −200 -->
      <g transform="translate(10.872812 548.022486)scale(0.1 -0.1)">
       <use xlink:href="#DejaVuSans-2212"/>
       <use xlink:href="#DejaVuSans-32" x="83.789062"/>
       <use xlink:href="#DejaVuSans-30" x="147.412109"/>
       <use xlink:href="#DejaVuSans-30" x="211.035156"/>
      </g>
     </g>
    </g>
    <g id="ytick_10">
     <g id="line2d_30">
      <g>
       <use xlink:href="#m2f2b318ab6" x="45.34" y="499.10174" style="stroke: #000000; stroke-width: 0.8"/>
      </g>
     </g>
     <g id="text_21">
      <!-- 0 -->
      <g transform="translate(31.9775 502.900959)scale(0.1 -0.1)">
       <use xlink:href="#DejaVuSans-30"/>
      </g>
     </g>
    </g>
    <g id="ytick_11">
     <g id="line2d_31">
      <g>
       <use xlink:href="#m2f2b318ab6" x="45.34" y="453.980213" style="stroke: #000000; stroke-width: 0.8"/>
      </g>
     </g>
     <g id="text_22">
      <!-- 200 -->
      <g transform="translate(19.2525 457.779432)scale(0.1 -0.1)">
       <use xlink:href="#DejaVuSans-32"/>
       <use xlink:href="#DejaVuSans-30" x="63.623047"/>
       <use xlink:href="#DejaVuSans-30" x="127.246094"/>
      </g>
     </g>
    </g>
    <g id="ytick_12">
     <g id="line2d_32">
      <g>
       <use xlink:href="#m2f2b318ab6" x="45.34" y="408.858687" style="stroke: #000000; stroke-width: 0.8"/>
      </g>
     </g>
     <g id="text_23">
      <!-- 400 -->
      <g transform="translate(19.2525 412.657905)scale(0.1 -0.1)">
       <use xlink:href="#DejaVuSans-34"/>
       <use xlink:href="#DejaVuSans-30" x="63.623047"/>
       <use xlink:href="#DejaVuSans-30" x="127.246094"/>
      </g>
     </g>
    </g>
    <g id="ytick_13">
     <g id="line2d_33">
      <g>
       <use xlink:href="#m2f2b318ab6" x="45.34" y="363.73716" style="stroke: #000000; stroke-width: 0.8"/>
      </g>
     </g>
     <g id="text_24">
      <!-- 600 -->
      <g transform="translate(19.2525 367.536378)scale(0.1 -0.1)">
       <use xlink:href="#DejaVuSans-36"/>
       <use xlink:href="#DejaVuSans-30" x="63.623047"/>
       <use xlink:href="#DejaVuSans-30" x="127.246094"/>
      </g>
     </g>
    </g>
    <g id="ytick_14">
     <g id="line2d_34">
      <g>
       <use xlink:href="#m2f2b318ab6" x="45.34" y="318.615633" style="stroke: #000000; stroke-width: 0.8"/>
      </g>
     </g>
     <g id="text_25">
      <!-- 800 -->
      <g transform="translate(19.2525 322.414852)scale(0.1 -0.1)">
       <defs>
        <path id="DejaVuSans-38" d="M 2034 2216 
Q 1584 2216 1326 1975 
Q 1069 1734 1069 1313 
Q 1069 891 1326 650 
Q 1584 409 2034 409 
Q 2484 409 2743 651 
Q 3003 894 3003 1313 
Q 3003 1734 2745 1975 
Q 2488 2216 2034 2216 
z
M 1403 2484 
Q 997 2584 770 2862 
Q 544 3141 544 3541 
Q 544 4100 942 4425 
Q 1341 4750 2034 4750 
Q 2731 4750 3128 4425 
Q 3525 4100 3525 3541 
Q 3525 3141 3298 2862 
Q 3072 2584 2669 2484 
Q 3125 2378 3379 2068 
Q 3634 1759 3634 1313 
Q 3634 634 3220 271 
Q 2806 -91 2034 -91 
Q 1263 -91 848 271 
Q 434 634 434 1313 
Q 434 1759 690 2068 
Q 947 2378 1403 2484 
z
M 1172 3481 
Q 1172 3119 1398 2916 
Q 1625 2713 2034 2713 
Q 2441 2713 2670 2916 
Q 2900 3119 2900 3481 
Q 2900 3844 2670 4047 
Q 2441 4250 2034 4250 
Q 1625 4250 1398 4047 
Q 1172 3844 1172 3481 
z
" transform="scale(0.015625)"/>
       </defs>
       <use xlink:href="#DejaVuSans-38"/>
       <use xlink:href="#DejaVuSans-30" x="63.623047"/>
       <use xlink:href="#DejaVuSans-30" x="127.246094"/>
      </g>
     </g>
    </g>
   </g>
   <g id="line2d_35">
    <path d="M 700.363404 499.747754 
L 671.981303 500.039111 
L 656.016372 500.401151 
L 647.146965 500.777077 
L 640.05144 501.293336 
L 634.729796 501.951266 
L 631.182034 502.648989 
L 629.408152 503.131172 
L 627.634271 503.747476 
L 625.86039 504.552609 
L 624.086508 505.62787 
L 622.312627 507.089314 
L 620.538746 509.075223 
L 616.990983 514.213257 
L 615.217102 514.949109 
L 613.443221 511.957869 
L 611.669339 507.086636 
L 609.895458 503.21416 
L 608.121577 500.884976 
L 606.347696 499.600761 
L 604.573814 498.903593 
L 602.799933 498.52507 
L 599.25217 498.216819 
L 593.930527 498.159035 
L 574.417832 498.446284 
L 546.035732 498.713634 
L 498.140937 498.909137 
L 397.029704 499.057271 
L 132.721392 499.165973 
L 44.027328 499.183049 
L 44.027328 499.183049 
" clip-path="url(#p28ffecefb4)" style="fill: none; stroke: #1f77b4; stroke-opacity: 0.85; stroke-width: 1.5; stroke-linecap: square"/>
   </g>
   <g id="line2d_36">
    <path d="M 614.934902 548.12 
L 614.934902 288.868182 
" clip-path="url(#p28ffecefb4)" style="fill: none; stroke-dasharray: 9.6,2.4,1.5,2.4; stroke-dashoffset: 0; stroke: #1f77b4; stroke-opacity: 0.2; stroke-width: 1.5"/>
   </g>
   <g id="line2d_37">
    <path d="M 700.363404 499.431574 
L 663.111897 499.672406 
L 647.146965 499.975928 
L 638.277559 500.356983 
L 632.955915 500.795299 
L 629.408152 501.287891 
L 627.634271 501.643232 
L 625.86039 502.11248 
L 624.086508 502.744881 
L 622.312627 503.606019 
L 620.538746 504.751969 
L 618.764865 506.095393 
L 616.990983 507.038301 
L 615.217102 506.411501 
L 611.669339 501.902441 
L 609.895458 500.402602 
L 608.121577 499.557461 
L 606.347696 499.099837 
L 604.573814 498.853181 
L 601.026052 498.652406 
L 593.930527 498.616038 
L 526.523038 498.956016 
L 420.09016 499.067196 
L 61.766141 499.140134 
L 44.027328 499.141717 
L 44.027328 499.141717 
" clip-path="url(#p28ffecefb4)" style="fill: none; stroke: #ff7f0e; stroke-opacity: 0.85; stroke-width: 1.5; stroke-linecap: square"/>
   </g>
   <g id="line2d_38">
    <path d="M 615.875567 548.12 
L 615.875567 288.868182 
" clip-path="url(#p28ffecefb4)" style="fill: none; stroke-dasharray: 9.6,2.4,1.5,2.4; stroke-dashoffset: 0; stroke: #ff7f0e; stroke-opacity: 0.2; stroke-width: 1.5"/>
   </g>
   <g id="line2d_39">
    <path d="M 700.363404 499.415964 
L 661.338015 499.652361 
L 645.373084 499.941876 
L 636.503677 500.303344 
L 631.182034 500.716557 
L 627.634271 501.17819 
L 624.086508 501.946586 
L 622.312627 502.534465 
L 620.538746 503.337459 
L 618.764865 504.423085 
L 616.990983 505.767147 
L 615.217102 506.938958 
L 613.443221 506.818082 
L 611.669339 504.883649 
L 609.895458 502.504539 
L 608.121577 500.807831 
L 606.347696 499.820749 
L 604.573814 499.277567 
L 602.799933 498.980167 
L 599.25217 498.728318 
L 593.930527 498.654546 
L 572.643951 498.790269 
L 528.296919 498.958062 
L 425.411804 499.068289 
L 77.731072 499.14033 
L 44.027328 499.143284 
L 44.027328 499.143284 
" clip-path="url(#p28ffecefb4)" style="fill: none; stroke: #2ca02c; stroke-opacity: 0.85; stroke-width: 1.5; stroke-linecap: square"/>
   </g>
   <g id="line2d_40">
    <path d="M 613.69795 548.12 
L 613.69795 288.868182 
" clip-path="url(#p28ffecefb4)" style="fill: none; stroke-dasharray: 9.6,2.4,1.5,2.4; stroke-dashoffset: 0; stroke: #2ca02c; stroke-opacity: 0.2; stroke-width: 1.5"/>
   </g>
   <g id="line2d_41">
    <path d="M 700.363404 498.80476 
L 583.287239 498.535165 
L 530.0708 498.21973 
L 499.914818 497.841513 
L 482.176005 497.429739 
L 469.758836 496.942799 
L 460.88943 496.382987 
L 455.567786 495.886708 
L 450.246142 495.175413 
L 446.69838 494.503047 
L 443.150617 493.565077 
L 441.376736 492.944842 
L 439.602855 492.178933 
L 437.828973 491.216019 
L 436.055092 489.98566 
L 434.281211 488.406242 
L 432.507329 486.468856 
L 430.733448 484.746496 
L 428.959567 486.898617 
L 425.411804 516.925479 
L 423.637923 517.342917 
L 421.864042 514.196883 
L 420.09016 511.42099 
L 418.316279 509.352569 
L 416.542398 507.822497 
L 414.768517 506.665659 
L 412.994635 505.768138 
L 411.220754 505.054922 
L 407.672991 503.997982 
L 404.125229 503.255505 
L 398.803585 502.483139 
L 393.481941 501.951935 
L 386.386416 501.457944 
L 375.743128 500.971747 
L 361.552078 500.56842 
L 340.265503 500.209959 
L 306.561758 499.900182 
L 251.571438 499.647804 
L 150.460205 499.440249 
L 44.027328 499.334252 
L 44.027328 499.334252 
" clip-path="url(#p28ffecefb4)" style="fill: none; stroke: #d62728; stroke-opacity: 0.85; stroke-width: 1.5; stroke-linecap: square"/>
   </g>
   <g id="line2d_42">
    <path d="M 427.777692 548.12 
L 427.777692 288.868182 
" clip-path="url(#p28ffecefb4)" style="fill: none; stroke-dasharray: 9.6,2.4,1.5,2.4; stroke-dashoffset: 0; stroke: #d62728; stroke-opacity: 0.2; stroke-width: 1.5"/>
   </g>
   <g id="line2d_43">
    <path d="M 700.363404 498.80507 
L 583.287239 498.534646 
L 530.0708 498.217504 
L 499.914818 497.836193 
L 482.176005 497.419752 
L 469.758836 496.925556 
L 460.88943 496.355092 
L 455.567786 495.84733 
L 450.246142 495.116312 
L 446.69838 494.421886 
L 443.150617 493.447934 
L 441.376736 492.800865 
L 439.602855 491.998935 
L 437.828973 490.987226 
L 436.055092 489.691894 
L 434.281211 488.035859 
L 432.507329 486.066228 
L 430.733448 484.696198 
L 428.959567 488.971665 
L 427.185686 506.718145 
L 425.411804 517.936087 
L 423.637923 516.749032 
L 421.864042 513.548525 
L 420.09016 510.924867 
L 418.316279 508.985963 
L 416.542398 507.547162 
L 414.768517 506.453593 
L 412.994635 505.600733 
L 411.220754 504.919854 
L 407.672991 503.905182 
L 404.125229 503.188062 
L 398.803585 502.438047 
L 393.481941 501.91974 
L 386.386416 501.435878 
L 375.743128 500.957863 
L 361.552078 500.559955 
L 340.265503 500.205254 
L 306.561758 499.897921 
L 251.571438 499.646977 
L 150.460205 499.440225 
L 44.027328 499.334507 
L 44.027328 499.334507 
" clip-path="url(#p28ffecefb4)" style="fill: none; stroke: #9467bd; stroke-opacity: 0.85; stroke-width: 1.5; stroke-linecap: square"/>
   </g>
   <g id="line2d_44">
    <path d="M 428.16501 548.12 
L 428.16501 288.868182 
" clip-path="url(#p28ffecefb4)" style="fill: none; stroke-dasharray: 9.6,2.4,1.5,2.4; stroke-dashoffset: 0; stroke: #9467bd; stroke-opacity: 0.2; stroke-width: 1.5"/>
   </g>
   <g id="line2d_45">
    <path d="M 700.363404 498.842968 
L 480.402124 498.639113 
L 411.220754 498.379437 
L 381.064772 498.079776 
L 363.325959 497.704382 
L 352.682672 497.279782 
L 345.587146 496.798789 
L 340.265503 496.219157 
L 336.71774 495.634849 
L 333.169977 494.758623 
L 331.396096 494.138585 
L 329.622215 493.326036 
L 327.848334 492.22624 
L 326.074452 490.680449 
L 324.300571 488.416922 
L 322.52669 484.992524 
L 320.752808 479.94493 
L 318.978927 474.534738 
L 317.205046 476.111431 
L 315.431165 486.726133 
L 313.657283 494.971351 
L 311.883402 498.736536 
L 310.109521 500.266706 
L 308.335639 500.864935 
L 306.561758 501.070181 
L 303.013996 501.060554 
L 278.179658 500.091815 
L 260.440845 499.780791 
L 232.058744 499.52602 
L 180.616187 499.318389 
L 75.957191 499.158325 
L 44.027328 499.132496 
L 44.027328 499.132496 
" clip-path="url(#p28ffecefb4)" style="fill: none; stroke: #8c564b; stroke-opacity: 0.85; stroke-width: 1.5; stroke-linecap: square"/>
   </g>
   <g id="line2d_46">
    <path d="M 318.087703 548.12 
L 318.087703 288.868182 
" clip-path="url(#p28ffecefb4)" style="fill: none; stroke-dasharray: 9.6,2.4,1.5,2.4; stroke-dashoffset: 0; stroke: #8c564b; stroke-opacity: 0.2; stroke-width: 1.5"/>
   </g>
   <g id="line2d_47">
    <path d="M 700.363404 498.842823 
L 480.402124 498.638447 
L 411.220754 498.377886 
L 381.064772 498.076895 
L 363.325959 497.699373 
L 352.682672 497.27176 
L 345.587146 496.7866 
L 340.265503 496.200929 
L 336.71774 495.609463 
L 333.169977 494.720636 
L 331.396096 494.090429 
L 329.622215 493.263132 
L 327.848334 492.141094 
L 326.074452 490.560394 
L 324.300571 488.240504 
L 322.52669 484.728136 
L 318.978927 474.328239 
L 317.205046 476.616604 
L 315.431165 487.39938 
L 313.657283 495.325395 
L 311.883402 498.891197 
L 310.109521 500.335103 
L 308.335639 500.896445 
L 306.561758 501.085069 
L 303.013996 501.063622 
L 279.953539 500.135447 
L 262.214726 499.80459 
L 233.832625 499.537843 
L 184.163949 499.328363 
L 83.052716 499.165301 
L 44.027328 499.13283 
L 44.027328 499.13283 
" clip-path="url(#p28ffecefb4)" style="fill: none; stroke: #e377c2; stroke-opacity: 0.85; stroke-width: 1.5; stroke-linecap: square"/>
   </g>
   <g id="line2d_48">
    <path d="M 318.195368 548.12 
L 318.195368 288.868182 
" clip-path="url(#p28ffecefb4)" style="fill: none; stroke-dasharray: 9.6,2.4,1.5,2.4; stroke-dashoffset: 0; stroke: #e377c2; stroke-opacity: 0.2; stroke-width: 1.5"/>
   </g>
   <g id="line2d_49">
    <path d="M 700.363404 499.09418 
L 492.819293 498.976694 
L 478.628243 498.86284 
L 476.854362 499.089364 
L 475.08048 499.817733 
L 473.306599 500.117342 
L 469.758836 499.656052 
L 466.211074 499.438381 
L 459.115549 499.284167 
L 439.602855 499.182137 
L 363.325959 499.128488 
L 44.027328 499.109968 
L 44.027328 499.109968 
" clip-path="url(#p28ffecefb4)" style="fill: none; stroke: #7f7f7f; stroke-opacity: 0.85; stroke-width: 1.5; stroke-linecap: square"/>
   </g>
   <g id="line2d_50">
    <path d="M 475.637053 548.12 
L 475.637053 288.868182 
" clip-path="url(#p28ffecefb4)" style="fill: none; stroke-dasharray: 9.6,2.4,1.5,2.4; stroke-dashoffset: 0; stroke: #7f7f7f; stroke-opacity: 0.2; stroke-width: 1.5"/>
   </g>
   <g id="line2d_51">
    <path d="M 700.363404 499.020453 
L 537.166325 498.842857 
L 492.819293 498.606219 
L 473.306599 498.299016 
L 464.437193 497.994691 
L 457.341667 497.528125 
L 453.793905 497.12413 
L 450.246142 496.48882 
L 446.69838 495.582229 
L 444.924498 495.558027 
L 443.150617 498.15321 
L 441.376736 504.237131 
L 439.602855 505.659584 
L 436.055092 503.287412 
L 434.281211 502.472539 
L 432.507329 501.899841 
L 428.959567 501.172128 
L 425.411804 500.738057 
L 420.09016 500.343938 
L 411.220754 499.987437 
L 397.029704 499.709493 
L 372.195366 499.495614 
L 322.52669 499.334721 
L 201.902762 499.219442 
L 44.027328 499.171157 
L 44.027328 499.171157 
" clip-path="url(#p28ffecefb4)" style="fill: none; stroke: #bcbd22; stroke-opacity: 0.85; stroke-width: 1.5; stroke-linecap: square"/>
   </g>
   <g id="line2d_52">
    <path d="M 442.755042 548.12 
L 442.755042 288.868182 
" clip-path="url(#p28ffecefb4)" style="fill: none; stroke-dasharray: 9.6,2.4,1.5,2.4; stroke-dashoffset: 0; stroke: #bcbd22; stroke-opacity: 0.2; stroke-width: 1.5"/>
   </g>
   <g id="line2d_53">
    <path d="M 700.363404 498.610218 
L 318.978927 498.501691 
L 297.692352 498.315551 
L 288.822945 498.074436 
L 283.501301 497.762647 
L 279.953539 497.38085 
L 278.179658 497.087819 
L 276.405776 496.678697 
L 274.631895 496.083669 
L 272.858014 495.17186 
L 271.084132 493.674854 
L 269.310251 490.972131 
L 267.53637 485.37032 
L 265.762489 471.005042 
L 263.988607 420.490872 
L 262.214726 300.652355 
L 260.440845 420.337724 
L 258.666963 470.658993 
L 256.893082 485.071166 
L 255.119201 490.726129 
L 253.34532 493.469431 
L 251.571438 494.996629 
L 249.797557 495.931339 
L 248.023676 496.544185 
L 246.249794 496.967503 
L 242.702032 497.498533 
L 237.380388 497.914135 
L 230.284863 498.181873 
L 217.867694 498.381932 
L 193.033356 498.511513 
L 122.078104 498.582997 
L 44.027328 498.597743 
L 44.027328 498.597743 
" clip-path="url(#p28ffecefb4)" style="fill: none; stroke: #17becf; stroke-opacity: 0.85; stroke-width: 1.5; stroke-linecap: square"/>
   </g>
   <g id="line2d_54">
    <path d="M 263.106517 548.12 
L 263.106517 288.868182 
" clip-path="url(#p28ffecefb4)" style="fill: none; stroke-dasharray: 9.6,2.4,1.5,2.4; stroke-dashoffset: 0; stroke: #17becf; stroke-opacity: 0.2; stroke-width: 1.5"/>
   </g>
   <g id="line2d_55">
    <path d="M 700.363404 499.06234 
L 384.612535 499.257602 
L 297.692352 499.502847 
L 260.440845 499.80433 
L 240.928151 500.156407 
L 228.510982 500.591945 
L 221.415456 501.020332 
L 216.093813 501.520758 
L 212.54605 502.005798 
L 208.998287 502.685665 
L 203.676644 503.970919 
L 201.902762 503.524742 
L 200.128881 498.150163 
L 198.355 471.016476 
L 196.581118 461.269123 
L 194.807237 476.690689 
L 193.033356 484.79326 
L 191.259475 488.88844 
L 189.485593 491.240749 
L 187.711712 492.738115 
L 185.937831 493.765187 
L 184.163949 494.50958 
L 182.390068 495.072129 
L 178.842306 495.863325 
L 175.294543 496.391485 
L 169.972899 496.918757 
L 162.877374 497.361106 
L 152.234086 497.757218 
L 136.269155 498.087451 
L 111.434817 498.353847 
L 67.087785 498.575268 
L 44.027328 498.63982 
L 44.027328 498.63982 
" clip-path="url(#p28ffecefb4)" style="fill: none; stroke: #aec7e8; stroke-opacity: 0.85; stroke-width: 1.5; stroke-linecap: square"/>
   </g>
   <g id="line2d_56">
    <path d="M 198.861855 548.12 
L 198.861855 288.868182 
" clip-path="url(#p28ffecefb4)" style="fill: none; stroke-dasharray: 9.6,2.4,1.5,2.4; stroke-dashoffset: 0; stroke: #aec7e8; stroke-opacity: 0.2; stroke-width: 1.5"/>
   </g>
   <g id="line2d_57">
    <path d="M 700.363404 499.090038 
L 347.361028 499.266685 
L 267.53637 499.495894 
L 235.606507 499.782558 
L 219.641575 500.115497 
L 210.772169 500.467672 
L 203.676644 500.966619 
L 200.128881 501.366504 
L 196.581118 501.955566 
L 193.033356 502.843147 
L 191.259475 503.359477 
L 189.485593 503.446354 
L 187.711712 499.836313 
L 185.937831 479.722184 
L 184.163949 476.837159 
L 182.390068 485.583071 
L 180.616187 490.113022 
L 178.842306 492.5046 
L 177.068424 493.928022 
L 175.294543 494.858246 
L 173.520662 495.50905 
L 169.972899 496.354386 
L 166.425137 496.876693 
L 161.103493 497.367318 
L 154.007968 497.756851 
L 143.36468 498.089731 
L 125.625867 498.377144 
L 95.469885 498.603043 
L 44.027328 498.765313 
L 44.027328 498.765313 
" clip-path="url(#p28ffecefb4)" style="fill: none; stroke: #ffbb78; stroke-opacity: 0.85; stroke-width: 1.5; stroke-linecap: square"/>
   </g>
   <g id="line2d_58">
    <path d="M 186.764245 548.12 
L 186.764245 288.868182 
" clip-path="url(#p28ffecefb4)" style="fill: none; stroke-dasharray: 9.6,2.4,1.5,2.4; stroke-dashoffset: 0; stroke: #ffbb78; stroke-opacity: 0.2; stroke-width: 1.5"/>
   </g>
   <g id="line2d_59">
    <path d="M 700.363404 499.118648 
L 340.265503 499.304799 
L 253.34532 499.535674 
L 216.093813 499.835631 
L 198.355 500.162668 
L 187.711712 500.533171 
L 180.616187 500.955687 
L 175.294543 501.471064 
L 171.74678 501.999029 
L 168.199018 502.806854 
L 166.425137 503.387206 
L 164.651255 504.148132 
L 161.103493 506.190389 
L 159.329611 505.306312 
L 157.55573 490.849754 
L 155.781849 479.494611 
L 154.007968 485.098436 
L 152.234086 489.301674 
L 150.460205 491.738892 
L 148.686324 493.251189 
L 146.912442 494.263405 
L 145.138561 494.982827 
L 143.36468 495.518303 
L 139.816917 496.259418 
L 136.269155 496.746465 
L 130.947511 497.226787 
L 123.851986 497.625421 
L 113.208698 497.979252 
L 97.243766 498.272142 
L 70.635547 498.518747 
L 44.027328 498.649151 
L 44.027328 498.649151 
" clip-path="url(#p28ffecefb4)" style="fill: none; stroke: #98df8a; stroke-opacity: 0.85; stroke-width: 1.5; stroke-linecap: square"/>
   </g>
   <g id="line2d_60">
    <path d="M 158.218525 548.12 
L 158.218525 288.868182 
" clip-path="url(#p28ffecefb4)" style="fill: none; stroke-dasharray: 9.6,2.4,1.5,2.4; stroke-dashoffset: 0; stroke: #98df8a; stroke-opacity: 0.2; stroke-width: 1.5"/>
   </g>
   <g id="line2d_61">
    <path d="M 700.363404 499.109894 
L 246.249794 499.250923 
L 193.033356 499.440729 
L 173.520662 499.700004 
L 164.651255 500.000108 
L 159.329611 500.360151 
L 152.234086 500.999031 
L 150.460205 499.919677 
L 148.686324 496.459661 
L 146.912442 494.739037 
L 145.138561 495.427834 
L 143.36468 496.256185 
L 141.590799 496.847544 
L 139.816917 497.256071 
L 136.269155 497.762044 
L 130.947511 498.159561 
L 123.851986 498.428321 
L 111.434817 498.652126 
L 86.600479 498.829924 
L 44.027328 498.937757 
L 44.027328 498.937757 
" clip-path="url(#p28ffecefb4)" style="fill: none; stroke: #ff9896; stroke-opacity: 0.85; stroke-width: 1.5; stroke-linecap: square"/>
   </g>
   <g id="line2d_62">
    <path d="M 149.79486 548.12 
L 149.79486 288.868182 
" clip-path="url(#p28ffecefb4)" style="fill: none; stroke-dasharray: 9.6,2.4,1.5,2.4; stroke-dashoffset: 0; stroke: #ff9896; stroke-opacity: 0.2; stroke-width: 1.5"/>
   </g>
   <g id="line2d_63">
    <path d="M 700.363404 499.118163 
L 237.380388 499.266306 
L 177.068424 499.470006 
L 155.781849 499.736419 
L 145.138561 500.087633 
L 139.816917 500.458696 
L 136.269155 500.905072 
L 134.495273 501.252949 
L 132.721392 501.752481 
L 130.947511 502.502093 
L 129.17363 503.565756 
L 127.399748 503.193277 
L 125.625867 493.875145 
L 123.851986 493.161188 
L 122.078104 494.897557 
L 120.304223 495.981 
L 118.530342 496.646577 
L 116.756461 497.085927 
L 113.208698 497.622816 
L 107.887054 498.047685 
L 100.791529 498.340274 
L 88.37436 498.589151 
L 65.313903 498.782359 
L 44.027328 498.864604 
L 44.027328 498.864604 
" clip-path="url(#p28ffecefb4)" style="fill: none; stroke: #c5b0d5; stroke-opacity: 0.85; stroke-width: 1.5; stroke-linecap: square"/>
   </g>
   <g id="line2d_64">
    <path d="M 127.262407 548.12 
L 127.262407 288.868182 
" clip-path="url(#p28ffecefb4)" style="fill: none; stroke-dasharray: 9.6,2.4,1.5,2.4; stroke-dashoffset: 0; stroke: #c5b0d5; stroke-opacity: 0.2; stroke-width: 1.5"/>
   </g>
   <g id="line2d_65">
    <path d="M 700.363404 499.246782 
L 412.994635 499.529061 
L 299.466233 499.841043 
L 242.702032 500.193241 
L 208.998287 500.598237 
L 187.711712 501.044236 
L 171.74678 501.595328 
L 161.103493 502.171896 
L 154.007968 502.72845 
L 148.686324 503.297017 
L 143.36468 504.074212 
L 139.816917 504.772488 
L 136.269155 505.695646 
L 132.721392 506.971412 
L 130.947511 507.810086 
L 129.17363 508.843922 
L 127.399748 510.147566 
L 125.625867 511.837034 
L 123.851986 514.099661 
L 122.078104 517.246349 
L 120.304223 521.772567 
L 118.530342 528.093215 
L 116.756461 532.059327 
L 114.982579 500.105781 
L 113.208698 463.696804 
L 111.434817 467.808351 
L 109.660935 474.992383 
L 107.887054 480.029504 
L 106.113173 483.46593 
L 104.339292 485.902537 
L 102.56541 487.703048 
L 100.791529 489.081359 
L 99.017648 490.167605 
L 97.243766 491.044389 
L 93.696004 492.370589 
L 90.148241 493.324597 
L 86.600479 494.043073 
L 81.278835 494.839594 
L 74.18331 495.580247 
L 65.313903 496.209662 
L 54.670616 496.721386 
L 44.027328 497.080111 
L 44.027328 497.080111 
" clip-path="url(#p28ffecefb4)" style="fill: none; stroke: #c49c94; stroke-opacity: 0.85; stroke-width: 1.5; stroke-linecap: square"/>
   </g>
   <g id="line2d_66">
    <path d="M 115.902918 548.12 
L 115.902918 288.868182 
" clip-path="url(#p28ffecefb4)" style="fill: none; stroke-dasharray: 9.6,2.4,1.5,2.4; stroke-dashoffset: 0; stroke: #c49c94; stroke-opacity: 0.2; stroke-width: 1.5"/>
   </g>
   <g id="line2d_67">
    <path d="M 700.363404 498.835525 
L 677.302947 499.197212 
L 663.111897 499.637661 
L 654.24249 500.109283 
L 647.146965 500.708891 
L 641.825321 501.401116 
L 638.277559 502.063272 
L 634.729796 502.992083 
L 632.955915 503.606848 
L 631.182034 504.365245 
L 629.408152 505.317588 
L 627.634271 506.537467 
L 625.86039 508.134035 
L 624.086508 510.268839 
L 622.312627 513.169479 
L 620.538746 517.094313 
L 616.990983 526.927712 
L 615.217102 528.197926 
L 613.443221 522.841399 
L 611.669339 513.749115 
L 609.895458 505.986355 
L 608.121577 501.103744 
L 606.347696 498.362995 
L 604.573814 496.863902 
L 602.799933 496.043504 
L 601.026052 495.595585 
L 599.25217 495.356598 
L 595.704408 495.188516 
L 588.608883 495.265595 
L 567.322307 495.667871 
L 549.583494 495.746424 
L 530.0708 495.607572 
L 512.331987 495.26402 
L 498.140937 494.770349 
L 487.497649 494.174401 
L 478.628243 493.465416 
L 476.854362 493.53343 
L 475.08048 494.090122 
L 473.306599 494.203264 
L 467.984955 492.940235 
L 460.88943 491.453502 
L 457.341667 490.510275 
L 453.793905 489.287988 
L 452.020024 488.52081 
L 450.246142 487.611343 
L 448.472261 486.532917 
L 446.69838 485.32285 
L 444.924498 484.421955 
L 443.150617 485.968744 
L 441.376736 490.779139 
L 439.602855 490.627625 
L 437.828973 487.425671 
L 436.055092 483.742839 
L 434.281211 479.686202 
L 432.507329 475.19999 
L 430.733448 471.685317 
L 428.959567 477.793713 
L 427.185686 510.506024 
L 425.411804 536.335826 
L 423.637923 535.401841 
L 421.864042 528.917407 
L 420.09016 523.400068 
L 418.316279 519.290509 
L 416.542398 516.231607 
L 414.768517 513.900865 
L 412.994635 512.07792 
L 411.220754 510.617527 
L 409.446873 509.422804 
L 407.672991 508.427567 
L 404.125229 506.862997 
L 400.577466 505.685408 
L 397.029704 504.76191 
L 391.70806 503.686895 
L 386.386416 502.850537 
L 379.290891 501.954698 
L 366.873722 500.656349 
L 354.456553 499.294467 
L 349.134909 498.539244 
L 343.813265 497.539709 
L 340.265503 496.633787 
L 336.71774 495.394471 
L 334.943859 494.580119 
L 333.169977 493.573322 
L 331.396096 492.297545 
L 329.622215 490.633707 
L 327.848334 488.389318 
L 326.074452 485.241611 
L 324.300571 480.638215 
L 322.52669 473.682607 
L 318.978927 452.790225 
L 317.205046 456.639198 
L 315.431165 478.021268 
L 313.657283 494.177628 
L 311.883402 501.494122 
L 310.109521 504.453904 
L 308.335639 505.599175 
L 306.561758 505.978492 
L 304.787877 506.022287 
L 301.240114 505.744967 
L 281.72742 503.508487 
L 278.179658 502.862526 
L 276.405776 502.397076 
L 274.631895 501.752864 
L 272.858014 500.798604 
L 271.084132 499.265522 
L 269.310251 496.532796 
L 267.53637 490.906798 
L 265.762489 476.522939 
L 263.988607 425.995624 
L 262.214726 306.149271 
L 260.440845 425.832019 
L 258.666963 476.15583 
L 256.893082 490.575687 
L 255.119201 496.243493 
L 253.34532 499.004849 
L 251.571438 500.555404 
L 249.797557 501.518903 
L 248.023676 502.166143 
L 244.475913 502.980566 
L 240.928151 503.492229 
L 233.832625 504.210265 
L 223.189338 505.271399 
L 217.867694 506.002757 
L 214.319931 506.647474 
L 210.772169 507.49306 
L 207.224406 508.6272 
L 203.676644 509.899251 
L 201.902762 509.708664 
L 200.128881 504.630732 
L 198.355 477.845919 
L 196.581118 468.514216 
L 194.807237 484.435141 
L 193.033356 493.130328 
L 191.259475 497.85721 
L 189.485593 500.42212 
L 187.711712 498.446977 
L 185.937831 479.511018 
L 184.163949 477.537189 
L 182.390068 487.030809 
L 180.616187 492.206813 
L 178.842306 495.183103 
L 177.068424 497.158756 
L 175.294543 498.63173 
L 173.520662 499.836559 
L 164.651255 505.278895 
L 161.103493 508.256578 
L 159.329611 507.851184 
L 157.55573 493.898313 
L 155.781849 483.079177 
L 154.007968 489.225655 
L 152.234086 493.785097 
L 150.460205 495.485354 
L 148.686324 493.897816 
L 146.912442 493.573814 
L 143.36468 497.219814 
L 141.590799 498.735561 
L 138.043036 501.284432 
L 134.495273 503.846252 
L 132.721392 505.369507 
L 130.947511 507.23821 
L 129.17363 509.577212 
L 127.399748 510.718895 
L 125.625867 503.27562 
L 123.851986 504.988974 
L 122.078104 510.019423 
L 120.304223 515.761861 
L 118.530342 522.868382 
L 116.756461 527.383385 
L 114.982579 495.838902 
L 113.208698 459.749972 
L 111.434817 464.121199 
L 109.660935 471.521839 
L 107.887054 476.743558 
L 106.113173 480.339989 
L 104.339292 482.917191 
L 102.56541 484.842625 
L 100.791529 486.332966 
L 99.017648 487.520465 
L 97.243766 488.489368 
L 95.469885 489.29554 
L 91.922123 490.562021 
L 88.37436 491.513926 
L 84.826597 492.257444 
L 79.504954 493.113056 
L 72.409428 493.943539 
L 63.540022 494.680813 
L 52.896734 495.305342 
L 44.027328 495.691654 
L 44.027328 495.691654 
" clip-path="url(#p28ffecefb4)" style="fill: none; stroke: #000000; stroke-opacity: 0.3; stroke-width: 2; stroke-linecap: square"/>
   </g>
   <g id="patch_9">
    <path d="M 45.34 548.12 
L 45.34 288.868182 
" style="fill: none; stroke: #000000; stroke-width: 0.8; stroke-linejoin: miter; stroke-linecap: square"/>
   </g>
   <g id="patch_10">
    <path d="M 698.625 548.12 
L 698.625 288.868182 
" style="fill: none; stroke: #000000; stroke-width: 0.8; stroke-linejoin: miter; stroke-linecap: square"/>
   </g>
   <g id="patch_11">
    <path d="M 45.34 548.12 
L 698.625 548.12 
" style="fill: none; stroke: #000000; stroke-width: 0.8; stroke-linejoin: miter; stroke-linecap: square"/>
   </g>
   <g id="patch_12">
    <path d="M 45.34 288.868182 
L 698.625 288.868182 
" style="fill: none; stroke: #000000; stroke-width: 0.8; stroke-linejoin: miter; stroke-linecap: square"/>
   </g>
   <g id="text_26">
    <!-- BATP -->
    <g style="fill: #1f77b4" transform="translate(614.934902 514.949109)scale(0.18 -0.18)">
     <defs>
      <path id="DejaVuSans-42" d="M 1259 2228 
L 1259 519 
L 2272 519 
Q 2781 519 3026 730 
Q 3272 941 3272 1375 
Q 3272 1813 3026 2020 
Q 2781 2228 2272 2228 
L 1259 2228 
z
M 1259 4147 
L 1259 2741 
L 2194 2741 
Q 2656 2741 2882 2914 
Q 3109 3088 3109 3444 
Q 3109 3797 2882 3972 
Q 2656 4147 2194 4147 
L 1259 4147 
z
M 628 4666 
L 2241 4666 
Q 2963 4666 3353 4366 
Q 3744 4066 3744 3513 
Q 3744 3084 3544 2831 
Q 3344 2578 2956 2516 
Q 3422 2416 3680 2098 
Q 3938 1781 3938 1306 
Q 3938 681 3513 340 
Q 3088 0 2303 0 
L 628 0 
L 628 4666 
z
" transform="scale(0.015625)"/>
      <path id="DejaVuSans-41" d="M 2188 4044 
L 1331 1722 
L 3047 1722 
L 2188 4044 
z
M 1831 4666 
L 2547 4666 
L 4325 0 
L 3669 0 
L 3244 1197 
L 1141 1197 
L 716 0 
L 50 0 
L 1831 4666 
z
" transform="scale(0.015625)"/>
      <path id="DejaVuSans-54" d="M -19 4666 
L 3928 4666 
L 3928 4134 
L 2272 4134 
L 2272 0 
L 1638 0 
L 1638 4134 
L -19 4134 
L -19 4666 
z
" transform="scale(0.015625)"/>
      <path id="DejaVuSans-50" d="M 1259 4147 
L 1259 2394 
L 2053 2394 
Q 2494 2394 2734 2622 
Q 2975 2850 2975 3272 
Q 2975 3691 2734 3919 
Q 2494 4147 2053 4147 
L 1259 4147 
z
M 628 4666 
L 2053 4666 
Q 2838 4666 3239 4311 
Q 3641 3956 3641 3272 
Q 3641 2581 3239 2228 
Q 2838 1875 2053 1875 
L 1259 1875 
L 1259 0 
L 628 0 
L 628 4666 
z
" transform="scale(0.015625)"/>
     </defs>
     <use xlink:href="#DejaVuSans-42"/>
     <use xlink:href="#DejaVuSans-41" x="68.603516"/>
     <use xlink:href="#DejaVuSans-54" x="129.261719"/>
     <use xlink:href="#DejaVuSans-50" x="190.345703"/>
    </g>
   </g>
   <g id="text_27">
    <!-- BATP2 -->
    <g style="fill: #ff7f0e" transform="translate(615.875567 507.038301)scale(0.18 -0.18)">
     <use xlink:href="#DejaVuSans-42"/>
     <use xlink:href="#DejaVuSans-41" x="68.603516"/>
     <use xlink:href="#DejaVuSans-54" x="129.261719"/>
     <use xlink:href="#DejaVuSans-50" x="190.345703"/>
     <use xlink:href="#DejaVuSans-32" x="250.648438"/>
    </g>
   </g>
   <g id="text_28">
    <!-- BATP3 -->
    <g style="fill: #2ca02c" transform="translate(613.69795 506.938958)scale(0.18 -0.18)">
     <use xlink:href="#DejaVuSans-42"/>
     <use xlink:href="#DejaVuSans-41" x="68.603516"/>
     <use xlink:href="#DejaVuSans-54" x="129.261719"/>
     <use xlink:href="#DejaVuSans-50" x="190.345703"/>
     <use xlink:href="#DejaVuSans-33" x="250.648438"/>
    </g>
   </g>
   <g id="text_29">
    <!-- AATP -->
    <g style="fill: #d62728" transform="translate(427.777692 517.342917)scale(0.18 -0.18)">
     <use xlink:href="#DejaVuSans-41"/>
     <use xlink:href="#DejaVuSans-41" x="71.158203"/>
     <use xlink:href="#DejaVuSans-54" x="131.816406"/>
     <use xlink:href="#DejaVuSans-50" x="192.900391"/>
    </g>
   </g>
   <g id="text_30">
    <!-- AATP2 -->
    <g style="fill: #9467bd" transform="translate(428.16501 517.936087)scale(0.18 -0.18)">
     <use xlink:href="#DejaVuSans-41"/>
     <use xlink:href="#DejaVuSans-41" x="71.158203"/>
     <use xlink:href="#DejaVuSans-54" x="131.816406"/>
     <use xlink:href="#DejaVuSans-50" x="192.900391"/>
     <use xlink:href="#DejaVuSans-32" x="253.203125"/>
    </g>
   </g>
   <g id="text_31">
    <!-- GATP -->
    <g style="fill: #8c564b" transform="translate(318.087703 474.534738)scale(0.18 -0.18)">
     <defs>
      <path id="DejaVuSans-47" d="M 3809 666 
L 3809 1919 
L 2778 1919 
L 2778 2438 
L 4434 2438 
L 4434 434 
Q 4069 175 3628 42 
Q 3188 -91 2688 -91 
Q 1594 -91 976 548 
Q 359 1188 359 2328 
Q 359 3472 976 4111 
Q 1594 4750 2688 4750 
Q 3144 4750 3555 4637 
Q 3966 4525 4313 4306 
L 4313 3634 
Q 3963 3931 3569 4081 
Q 3175 4231 2741 4231 
Q 1884 4231 1454 3753 
Q 1025 3275 1025 2328 
Q 1025 1384 1454 906 
Q 1884 428 2741 428 
Q 3075 428 3337 486 
Q 3600 544 3809 666 
z
" transform="scale(0.015625)"/>
     </defs>
     <use xlink:href="#DejaVuSans-47"/>
     <use xlink:href="#DejaVuSans-41" x="77.490234"/>
     <use xlink:href="#DejaVuSans-54" x="138.148438"/>
     <use xlink:href="#DejaVuSans-50" x="199.232422"/>
    </g>
   </g>
   <g id="text_32">
    <!-- GATP2 -->
    <g style="fill: #e377c2" transform="translate(318.195368 474.328239)scale(0.18 -0.18)">
     <use xlink:href="#DejaVuSans-47"/>
     <use xlink:href="#DejaVuSans-41" x="77.490234"/>
     <use xlink:href="#DejaVuSans-54" x="138.148438"/>
     <use xlink:href="#DejaVuSans-50" x="199.232422"/>
     <use xlink:href="#DejaVuSans-32" x="259.535156"/>
    </g>
   </g>
   <g id="text_33">
    <!-- UDPG -->
    <g style="fill: #7f7f7f" transform="translate(475.637053 500.117342)scale(0.18 -0.18)">
     <defs>
      <path id="DejaVuSans-55" d="M 556 4666 
L 1191 4666 
L 1191 1831 
Q 1191 1081 1462 751 
Q 1734 422 2344 422 
Q 2950 422 3222 751 
Q 3494 1081 3494 1831 
L 3494 4666 
L 4128 4666 
L 4128 1753 
Q 4128 841 3676 375 
Q 3225 -91 2344 -91 
Q 1459 -91 1007 375 
Q 556 841 556 1753 
L 556 4666 
z
" transform="scale(0.015625)"/>
      <path id="DejaVuSans-44" d="M 1259 4147 
L 1259 519 
L 2022 519 
Q 2988 519 3436 956 
Q 3884 1394 3884 2338 
Q 3884 3275 3436 3711 
Q 2988 4147 2022 4147 
L 1259 4147 
z
M 628 4666 
L 1925 4666 
Q 3281 4666 3915 4102 
Q 4550 3538 4550 2338 
Q 4550 1131 3912 565 
Q 3275 0 1925 0 
L 628 0 
L 628 4666 
z
" transform="scale(0.015625)"/>
     </defs>
     <use xlink:href="#DejaVuSans-55"/>
     <use xlink:href="#DejaVuSans-44" x="73.193359"/>
     <use xlink:href="#DejaVuSans-50" x="150.195312"/>
     <use xlink:href="#DejaVuSans-47" x="210.498047"/>
    </g>
   </g>
   <g id="text_34">
    <!-- NAD -->
    <g style="fill: #bcbd22" transform="translate(442.755042 505.659584)scale(0.18 -0.18)">
     <defs>
      <path id="DejaVuSans-4e" d="M 628 4666 
L 1478 4666 
L 3547 763 
L 3547 4666 
L 4159 4666 
L 4159 0 
L 3309 0 
L 1241 3903 
L 1241 0 
L 628 0 
L 628 4666 
z
" transform="scale(0.015625)"/>
     </defs>
     <use xlink:href="#DejaVuSans-4e"/>
     <use xlink:href="#DejaVuSans-41" x="74.804688"/>
     <use xlink:href="#DejaVuSans-44" x="143.212891"/>
    </g>
   </g>
   <g id="text_35">
    <!-- PCr -->
    <g style="fill: #17becf" transform="translate(263.106517 300.652355)scale(0.18 -0.18)">
     <defs>
      <path id="DejaVuSans-43" d="M 4122 4306 
L 4122 3641 
Q 3803 3938 3442 4084 
Q 3081 4231 2675 4231 
Q 1875 4231 1450 3742 
Q 1025 3253 1025 2328 
Q 1025 1406 1450 917 
Q 1875 428 2675 428 
Q 3081 428 3442 575 
Q 3803 722 4122 1019 
L 4122 359 
Q 3791 134 3420 21 
Q 3050 -91 2638 -91 
Q 1578 -91 968 557 
Q 359 1206 359 2328 
Q 359 3453 968 4101 
Q 1578 4750 2638 4750 
Q 3056 4750 3426 4639 
Q 3797 4528 4122 4306 
z
" transform="scale(0.015625)"/>
     </defs>
     <use xlink:href="#DejaVuSans-50"/>
     <use xlink:href="#DejaVuSans-43" x="60.302734"/>
     <use xlink:href="#DejaVuSans-72" x="130.126953"/>
    </g>
   </g>
   <g id="text_36">
    <!-- GPC -->
    <g style="fill: #aec7e8" transform="translate(198.861855 461.269123)scale(0.18 -0.18)">
     <use xlink:href="#DejaVuSans-47"/>
     <use xlink:href="#DejaVuSans-50" x="77.490234"/>
     <use xlink:href="#DejaVuSans-43" x="137.792969"/>
    </g>
   </g>
   <g id="text_37">
    <!-- GPE -->
    <g style="fill: #ffbb78" transform="translate(186.764245 476.837159)scale(0.18 -0.18)">
     <defs>
      <path id="DejaVuSans-45" d="M 628 4666 
L 3578 4666 
L 3578 4134 
L 1259 4134 
L 1259 2753 
L 3481 2753 
L 3481 2222 
L 1259 2222 
L 1259 531 
L 3634 531 
L 3634 0 
L 628 0 
L 628 4666 
z
" transform="scale(0.015625)"/>
     </defs>
     <use xlink:href="#DejaVuSans-47"/>
     <use xlink:href="#DejaVuSans-50" x="77.490234"/>
     <use xlink:href="#DejaVuSans-45" x="137.792969"/>
    </g>
   </g>
   <g id="text_38">
    <!-- Pin -->
    <g style="fill: #98df8a" transform="translate(158.218525 479.494611)scale(0.18 -0.18)">
     <use xlink:href="#DejaVuSans-50"/>
     <use xlink:href="#DejaVuSans-69" x="58.052734"/>
     <use xlink:href="#DejaVuSans-6e" x="85.835938"/>
    </g>
   </g>
   <g id="text_39">
    <!-- Pex -->
    <g style="fill: #ff9896" transform="translate(149.79486 494.739037)scale(0.18 -0.18)">
     <defs>
      <path id="DejaVuSans-78" d="M 3513 3500 
L 2247 1797 
L 3578 0 
L 2900 0 
L 1881 1375 
L 863 0 
L 184 0 
L 1544 1831 
L 300 3500 
L 978 3500 
L 1906 2253 
L 2834 3500 
L 3513 3500 
z
" transform="scale(0.015625)"/>
     </defs>
     <use xlink:href="#DejaVuSans-50"/>
     <use xlink:href="#DejaVuSans-65" x="56.677734"/>
     <use xlink:href="#DejaVuSans-78" x="116.451172"/>
    </g>
   </g>
   <g id="text_40">
    <!-- PC -->
    <g style="fill: #c5b0d5" transform="translate(127.262407 493.161188)scale(0.18 -0.18)">
     <use xlink:href="#DejaVuSans-50"/>
     <use xlink:href="#DejaVuSans-43" x="60.302734"/>
    </g>
   </g>
   <g id="text_41">
    <!-- PE -->
    <g style="fill: #c49c94" transform="translate(115.902918 463.696804)scale(0.18 -0.18)">
     <use xlink:href="#DejaVuSans-50"/>
     <use xlink:href="#DejaVuSans-45" x="60.302734"/>
    </g>
   </g>
  </g>
  <g id="text_42">
   <!-- AMARES Fitting Result -->
   <g transform="translate(293.8275 20.638125)scale(0.12 -0.12)">
    <defs>
     <path id="DejaVuSans-4d" d="M 628 4666 
L 1569 4666 
L 2759 1491 
L 3956 4666 
L 4897 4666 
L 4897 0 
L 4281 0 
L 4281 4097 
L 3078 897 
L 2444 897 
L 1241 4097 
L 1241 0 
L 628 0 
L 628 4666 
z
" transform="scale(0.015625)"/>
    </defs>
    <use xlink:href="#DejaVuSans-41"/>
    <use xlink:href="#DejaVuSans-4d" x="68.408203"/>
    <use xlink:href="#DejaVuSans-41" x="154.6875"/>
    <use xlink:href="#DejaVuSans-52" x="223.095703"/>
    <use xlink:href="#DejaVuSans-45" x="292.578125"/>
    <use xlink:href="#DejaVuSans-53" x="355.761719"/>
    <use xlink:href="#DejaVuSans-20" x="419.238281"/>
    <use xlink:href="#DejaVuSans-46" x="451.025391"/>
    <use xlink:href="#DejaVuSans-69" x="501.294922"/>
    <use xlink:href="#DejaVuSans-74" x="529.078125"/>
    <use xlink:href="#DejaVuSans-74" x="568.287109"/>
    <use xlink:href="#DejaVuSans-69" x="607.496094"/>
    <use xlink:href="#DejaVuSans-6e" x="635.279297"/>
    <use xlink:href="#DejaVuSans-67" x="698.658203"/>
    <use xlink:href="#DejaVuSans-20" x="762.134766"/>
    <use xlink:href="#DejaVuSans-52" x="793.921875"/>
    <use xlink:href="#DejaVuSans-65" x="858.904297"/>
    <use xlink:href="#DejaVuSans-73" x="920.427734"/>
    <use xlink:href="#DejaVuSans-75" x="972.527344"/>
    <use xlink:href="#DejaVuSans-6c" x="1035.90625"/>
    <use xlink:href="#DejaVuSans-74" x="1063.689453"/>
   </g>
  </g>
 </g>
 <defs>
  <clipPath id="pbbd2fa873e">
   <rect x="45.34" y="10.8" width="653.285" height="259.251818"/>
  </clipPath>
  <clipPath id="p28ffecefb4">
   <rect x="45.34" y="288.868182" width="653.285" height="259.251818"/>
  </clipPath>
 </defs>
</svg>
